G04 #@! TF.GenerationSoftware,KiCad,Pcbnew,(5.0.0)*
G04 #@! TF.CreationDate,2018-11-03T08:25:57+09:00*
G04 #@! TF.ProjectId,techinup_if,74656368696E75705F69662E6B696361,rev?*
G04 #@! TF.SameCoordinates,Original*
G04 #@! TF.FileFunction,Paste,Bot*
G04 #@! TF.FilePolarity,Positive*
%FSLAX46Y46*%
G04 Gerber Fmt 4.6, Leading zero omitted, Abs format (unit mm)*
G04 Created by KiCad (PCBNEW (5.0.0)) date 11/03/18 08:25:57*
%MOMM*%
%LPD*%
G01*
G04 APERTURE LIST*
%ADD10C,0.100000*%
%ADD11C,1.150000*%
%ADD12R,1.200000X0.900000*%
%ADD13R,0.600000X1.500000*%
%ADD14R,1.500000X0.600000*%
%ADD15R,0.800000X1.300000*%
G04 APERTURE END LIST*
D10*
G04 #@! TO.C,C8*
G36*
X84349505Y-71301204D02*
X84373773Y-71304804D01*
X84397572Y-71310765D01*
X84420671Y-71319030D01*
X84442850Y-71329520D01*
X84463893Y-71342132D01*
X84483599Y-71356747D01*
X84501777Y-71373223D01*
X84518253Y-71391401D01*
X84532868Y-71411107D01*
X84545480Y-71432150D01*
X84555970Y-71454329D01*
X84564235Y-71477428D01*
X84570196Y-71501227D01*
X84573796Y-71525495D01*
X84575000Y-71549999D01*
X84575000Y-72450001D01*
X84573796Y-72474505D01*
X84570196Y-72498773D01*
X84564235Y-72522572D01*
X84555970Y-72545671D01*
X84545480Y-72567850D01*
X84532868Y-72588893D01*
X84518253Y-72608599D01*
X84501777Y-72626777D01*
X84483599Y-72643253D01*
X84463893Y-72657868D01*
X84442850Y-72670480D01*
X84420671Y-72680970D01*
X84397572Y-72689235D01*
X84373773Y-72695196D01*
X84349505Y-72698796D01*
X84325001Y-72700000D01*
X83674999Y-72700000D01*
X83650495Y-72698796D01*
X83626227Y-72695196D01*
X83602428Y-72689235D01*
X83579329Y-72680970D01*
X83557150Y-72670480D01*
X83536107Y-72657868D01*
X83516401Y-72643253D01*
X83498223Y-72626777D01*
X83481747Y-72608599D01*
X83467132Y-72588893D01*
X83454520Y-72567850D01*
X83444030Y-72545671D01*
X83435765Y-72522572D01*
X83429804Y-72498773D01*
X83426204Y-72474505D01*
X83425000Y-72450001D01*
X83425000Y-71549999D01*
X83426204Y-71525495D01*
X83429804Y-71501227D01*
X83435765Y-71477428D01*
X83444030Y-71454329D01*
X83454520Y-71432150D01*
X83467132Y-71411107D01*
X83481747Y-71391401D01*
X83498223Y-71373223D01*
X83516401Y-71356747D01*
X83536107Y-71342132D01*
X83557150Y-71329520D01*
X83579329Y-71319030D01*
X83602428Y-71310765D01*
X83626227Y-71304804D01*
X83650495Y-71301204D01*
X83674999Y-71300000D01*
X84325001Y-71300000D01*
X84349505Y-71301204D01*
X84349505Y-71301204D01*
G37*
D11*
X84000000Y-72000000D03*
D10*
G36*
X82299505Y-71301204D02*
X82323773Y-71304804D01*
X82347572Y-71310765D01*
X82370671Y-71319030D01*
X82392850Y-71329520D01*
X82413893Y-71342132D01*
X82433599Y-71356747D01*
X82451777Y-71373223D01*
X82468253Y-71391401D01*
X82482868Y-71411107D01*
X82495480Y-71432150D01*
X82505970Y-71454329D01*
X82514235Y-71477428D01*
X82520196Y-71501227D01*
X82523796Y-71525495D01*
X82525000Y-71549999D01*
X82525000Y-72450001D01*
X82523796Y-72474505D01*
X82520196Y-72498773D01*
X82514235Y-72522572D01*
X82505970Y-72545671D01*
X82495480Y-72567850D01*
X82482868Y-72588893D01*
X82468253Y-72608599D01*
X82451777Y-72626777D01*
X82433599Y-72643253D01*
X82413893Y-72657868D01*
X82392850Y-72670480D01*
X82370671Y-72680970D01*
X82347572Y-72689235D01*
X82323773Y-72695196D01*
X82299505Y-72698796D01*
X82275001Y-72700000D01*
X81624999Y-72700000D01*
X81600495Y-72698796D01*
X81576227Y-72695196D01*
X81552428Y-72689235D01*
X81529329Y-72680970D01*
X81507150Y-72670480D01*
X81486107Y-72657868D01*
X81466401Y-72643253D01*
X81448223Y-72626777D01*
X81431747Y-72608599D01*
X81417132Y-72588893D01*
X81404520Y-72567850D01*
X81394030Y-72545671D01*
X81385765Y-72522572D01*
X81379804Y-72498773D01*
X81376204Y-72474505D01*
X81375000Y-72450001D01*
X81375000Y-71549999D01*
X81376204Y-71525495D01*
X81379804Y-71501227D01*
X81385765Y-71477428D01*
X81394030Y-71454329D01*
X81404520Y-71432150D01*
X81417132Y-71411107D01*
X81431747Y-71391401D01*
X81448223Y-71373223D01*
X81466401Y-71356747D01*
X81486107Y-71342132D01*
X81507150Y-71329520D01*
X81529329Y-71319030D01*
X81552428Y-71310765D01*
X81576227Y-71304804D01*
X81600495Y-71301204D01*
X81624999Y-71300000D01*
X82275001Y-71300000D01*
X82299505Y-71301204D01*
X82299505Y-71301204D01*
G37*
D11*
X81950000Y-72000000D03*
G04 #@! TD*
D10*
G04 #@! TO.C,C9*
G36*
X85849505Y-76301204D02*
X85873773Y-76304804D01*
X85897572Y-76310765D01*
X85920671Y-76319030D01*
X85942850Y-76329520D01*
X85963893Y-76342132D01*
X85983599Y-76356747D01*
X86001777Y-76373223D01*
X86018253Y-76391401D01*
X86032868Y-76411107D01*
X86045480Y-76432150D01*
X86055970Y-76454329D01*
X86064235Y-76477428D01*
X86070196Y-76501227D01*
X86073796Y-76525495D01*
X86075000Y-76549999D01*
X86075000Y-77450001D01*
X86073796Y-77474505D01*
X86070196Y-77498773D01*
X86064235Y-77522572D01*
X86055970Y-77545671D01*
X86045480Y-77567850D01*
X86032868Y-77588893D01*
X86018253Y-77608599D01*
X86001777Y-77626777D01*
X85983599Y-77643253D01*
X85963893Y-77657868D01*
X85942850Y-77670480D01*
X85920671Y-77680970D01*
X85897572Y-77689235D01*
X85873773Y-77695196D01*
X85849505Y-77698796D01*
X85825001Y-77700000D01*
X85174999Y-77700000D01*
X85150495Y-77698796D01*
X85126227Y-77695196D01*
X85102428Y-77689235D01*
X85079329Y-77680970D01*
X85057150Y-77670480D01*
X85036107Y-77657868D01*
X85016401Y-77643253D01*
X84998223Y-77626777D01*
X84981747Y-77608599D01*
X84967132Y-77588893D01*
X84954520Y-77567850D01*
X84944030Y-77545671D01*
X84935765Y-77522572D01*
X84929804Y-77498773D01*
X84926204Y-77474505D01*
X84925000Y-77450001D01*
X84925000Y-76549999D01*
X84926204Y-76525495D01*
X84929804Y-76501227D01*
X84935765Y-76477428D01*
X84944030Y-76454329D01*
X84954520Y-76432150D01*
X84967132Y-76411107D01*
X84981747Y-76391401D01*
X84998223Y-76373223D01*
X85016401Y-76356747D01*
X85036107Y-76342132D01*
X85057150Y-76329520D01*
X85079329Y-76319030D01*
X85102428Y-76310765D01*
X85126227Y-76304804D01*
X85150495Y-76301204D01*
X85174999Y-76300000D01*
X85825001Y-76300000D01*
X85849505Y-76301204D01*
X85849505Y-76301204D01*
G37*
D11*
X85500000Y-77000000D03*
D10*
G36*
X83799505Y-76301204D02*
X83823773Y-76304804D01*
X83847572Y-76310765D01*
X83870671Y-76319030D01*
X83892850Y-76329520D01*
X83913893Y-76342132D01*
X83933599Y-76356747D01*
X83951777Y-76373223D01*
X83968253Y-76391401D01*
X83982868Y-76411107D01*
X83995480Y-76432150D01*
X84005970Y-76454329D01*
X84014235Y-76477428D01*
X84020196Y-76501227D01*
X84023796Y-76525495D01*
X84025000Y-76549999D01*
X84025000Y-77450001D01*
X84023796Y-77474505D01*
X84020196Y-77498773D01*
X84014235Y-77522572D01*
X84005970Y-77545671D01*
X83995480Y-77567850D01*
X83982868Y-77588893D01*
X83968253Y-77608599D01*
X83951777Y-77626777D01*
X83933599Y-77643253D01*
X83913893Y-77657868D01*
X83892850Y-77670480D01*
X83870671Y-77680970D01*
X83847572Y-77689235D01*
X83823773Y-77695196D01*
X83799505Y-77698796D01*
X83775001Y-77700000D01*
X83124999Y-77700000D01*
X83100495Y-77698796D01*
X83076227Y-77695196D01*
X83052428Y-77689235D01*
X83029329Y-77680970D01*
X83007150Y-77670480D01*
X82986107Y-77657868D01*
X82966401Y-77643253D01*
X82948223Y-77626777D01*
X82931747Y-77608599D01*
X82917132Y-77588893D01*
X82904520Y-77567850D01*
X82894030Y-77545671D01*
X82885765Y-77522572D01*
X82879804Y-77498773D01*
X82876204Y-77474505D01*
X82875000Y-77450001D01*
X82875000Y-76549999D01*
X82876204Y-76525495D01*
X82879804Y-76501227D01*
X82885765Y-76477428D01*
X82894030Y-76454329D01*
X82904520Y-76432150D01*
X82917132Y-76411107D01*
X82931747Y-76391401D01*
X82948223Y-76373223D01*
X82966401Y-76356747D01*
X82986107Y-76342132D01*
X83007150Y-76329520D01*
X83029329Y-76319030D01*
X83052428Y-76310765D01*
X83076227Y-76304804D01*
X83100495Y-76301204D01*
X83124999Y-76300000D01*
X83775001Y-76300000D01*
X83799505Y-76301204D01*
X83799505Y-76301204D01*
G37*
D11*
X83450000Y-77000000D03*
G04 #@! TD*
D10*
G04 #@! TO.C,C10*
G36*
X84349505Y-91301204D02*
X84373773Y-91304804D01*
X84397572Y-91310765D01*
X84420671Y-91319030D01*
X84442850Y-91329520D01*
X84463893Y-91342132D01*
X84483599Y-91356747D01*
X84501777Y-91373223D01*
X84518253Y-91391401D01*
X84532868Y-91411107D01*
X84545480Y-91432150D01*
X84555970Y-91454329D01*
X84564235Y-91477428D01*
X84570196Y-91501227D01*
X84573796Y-91525495D01*
X84575000Y-91549999D01*
X84575000Y-92450001D01*
X84573796Y-92474505D01*
X84570196Y-92498773D01*
X84564235Y-92522572D01*
X84555970Y-92545671D01*
X84545480Y-92567850D01*
X84532868Y-92588893D01*
X84518253Y-92608599D01*
X84501777Y-92626777D01*
X84483599Y-92643253D01*
X84463893Y-92657868D01*
X84442850Y-92670480D01*
X84420671Y-92680970D01*
X84397572Y-92689235D01*
X84373773Y-92695196D01*
X84349505Y-92698796D01*
X84325001Y-92700000D01*
X83674999Y-92700000D01*
X83650495Y-92698796D01*
X83626227Y-92695196D01*
X83602428Y-92689235D01*
X83579329Y-92680970D01*
X83557150Y-92670480D01*
X83536107Y-92657868D01*
X83516401Y-92643253D01*
X83498223Y-92626777D01*
X83481747Y-92608599D01*
X83467132Y-92588893D01*
X83454520Y-92567850D01*
X83444030Y-92545671D01*
X83435765Y-92522572D01*
X83429804Y-92498773D01*
X83426204Y-92474505D01*
X83425000Y-92450001D01*
X83425000Y-91549999D01*
X83426204Y-91525495D01*
X83429804Y-91501227D01*
X83435765Y-91477428D01*
X83444030Y-91454329D01*
X83454520Y-91432150D01*
X83467132Y-91411107D01*
X83481747Y-91391401D01*
X83498223Y-91373223D01*
X83516401Y-91356747D01*
X83536107Y-91342132D01*
X83557150Y-91329520D01*
X83579329Y-91319030D01*
X83602428Y-91310765D01*
X83626227Y-91304804D01*
X83650495Y-91301204D01*
X83674999Y-91300000D01*
X84325001Y-91300000D01*
X84349505Y-91301204D01*
X84349505Y-91301204D01*
G37*
D11*
X84000000Y-92000000D03*
D10*
G36*
X82299505Y-91301204D02*
X82323773Y-91304804D01*
X82347572Y-91310765D01*
X82370671Y-91319030D01*
X82392850Y-91329520D01*
X82413893Y-91342132D01*
X82433599Y-91356747D01*
X82451777Y-91373223D01*
X82468253Y-91391401D01*
X82482868Y-91411107D01*
X82495480Y-91432150D01*
X82505970Y-91454329D01*
X82514235Y-91477428D01*
X82520196Y-91501227D01*
X82523796Y-91525495D01*
X82525000Y-91549999D01*
X82525000Y-92450001D01*
X82523796Y-92474505D01*
X82520196Y-92498773D01*
X82514235Y-92522572D01*
X82505970Y-92545671D01*
X82495480Y-92567850D01*
X82482868Y-92588893D01*
X82468253Y-92608599D01*
X82451777Y-92626777D01*
X82433599Y-92643253D01*
X82413893Y-92657868D01*
X82392850Y-92670480D01*
X82370671Y-92680970D01*
X82347572Y-92689235D01*
X82323773Y-92695196D01*
X82299505Y-92698796D01*
X82275001Y-92700000D01*
X81624999Y-92700000D01*
X81600495Y-92698796D01*
X81576227Y-92695196D01*
X81552428Y-92689235D01*
X81529329Y-92680970D01*
X81507150Y-92670480D01*
X81486107Y-92657868D01*
X81466401Y-92643253D01*
X81448223Y-92626777D01*
X81431747Y-92608599D01*
X81417132Y-92588893D01*
X81404520Y-92567850D01*
X81394030Y-92545671D01*
X81385765Y-92522572D01*
X81379804Y-92498773D01*
X81376204Y-92474505D01*
X81375000Y-92450001D01*
X81375000Y-91549999D01*
X81376204Y-91525495D01*
X81379804Y-91501227D01*
X81385765Y-91477428D01*
X81394030Y-91454329D01*
X81404520Y-91432150D01*
X81417132Y-91411107D01*
X81431747Y-91391401D01*
X81448223Y-91373223D01*
X81466401Y-91356747D01*
X81486107Y-91342132D01*
X81507150Y-91329520D01*
X81529329Y-91319030D01*
X81552428Y-91310765D01*
X81576227Y-91304804D01*
X81600495Y-91301204D01*
X81624999Y-91300000D01*
X82275001Y-91300000D01*
X82299505Y-91301204D01*
X82299505Y-91301204D01*
G37*
D11*
X81950000Y-92000000D03*
G04 #@! TD*
D10*
G04 #@! TO.C,C11*
G36*
X85849505Y-96301204D02*
X85873773Y-96304804D01*
X85897572Y-96310765D01*
X85920671Y-96319030D01*
X85942850Y-96329520D01*
X85963893Y-96342132D01*
X85983599Y-96356747D01*
X86001777Y-96373223D01*
X86018253Y-96391401D01*
X86032868Y-96411107D01*
X86045480Y-96432150D01*
X86055970Y-96454329D01*
X86064235Y-96477428D01*
X86070196Y-96501227D01*
X86073796Y-96525495D01*
X86075000Y-96549999D01*
X86075000Y-97450001D01*
X86073796Y-97474505D01*
X86070196Y-97498773D01*
X86064235Y-97522572D01*
X86055970Y-97545671D01*
X86045480Y-97567850D01*
X86032868Y-97588893D01*
X86018253Y-97608599D01*
X86001777Y-97626777D01*
X85983599Y-97643253D01*
X85963893Y-97657868D01*
X85942850Y-97670480D01*
X85920671Y-97680970D01*
X85897572Y-97689235D01*
X85873773Y-97695196D01*
X85849505Y-97698796D01*
X85825001Y-97700000D01*
X85174999Y-97700000D01*
X85150495Y-97698796D01*
X85126227Y-97695196D01*
X85102428Y-97689235D01*
X85079329Y-97680970D01*
X85057150Y-97670480D01*
X85036107Y-97657868D01*
X85016401Y-97643253D01*
X84998223Y-97626777D01*
X84981747Y-97608599D01*
X84967132Y-97588893D01*
X84954520Y-97567850D01*
X84944030Y-97545671D01*
X84935765Y-97522572D01*
X84929804Y-97498773D01*
X84926204Y-97474505D01*
X84925000Y-97450001D01*
X84925000Y-96549999D01*
X84926204Y-96525495D01*
X84929804Y-96501227D01*
X84935765Y-96477428D01*
X84944030Y-96454329D01*
X84954520Y-96432150D01*
X84967132Y-96411107D01*
X84981747Y-96391401D01*
X84998223Y-96373223D01*
X85016401Y-96356747D01*
X85036107Y-96342132D01*
X85057150Y-96329520D01*
X85079329Y-96319030D01*
X85102428Y-96310765D01*
X85126227Y-96304804D01*
X85150495Y-96301204D01*
X85174999Y-96300000D01*
X85825001Y-96300000D01*
X85849505Y-96301204D01*
X85849505Y-96301204D01*
G37*
D11*
X85500000Y-97000000D03*
D10*
G36*
X83799505Y-96301204D02*
X83823773Y-96304804D01*
X83847572Y-96310765D01*
X83870671Y-96319030D01*
X83892850Y-96329520D01*
X83913893Y-96342132D01*
X83933599Y-96356747D01*
X83951777Y-96373223D01*
X83968253Y-96391401D01*
X83982868Y-96411107D01*
X83995480Y-96432150D01*
X84005970Y-96454329D01*
X84014235Y-96477428D01*
X84020196Y-96501227D01*
X84023796Y-96525495D01*
X84025000Y-96549999D01*
X84025000Y-97450001D01*
X84023796Y-97474505D01*
X84020196Y-97498773D01*
X84014235Y-97522572D01*
X84005970Y-97545671D01*
X83995480Y-97567850D01*
X83982868Y-97588893D01*
X83968253Y-97608599D01*
X83951777Y-97626777D01*
X83933599Y-97643253D01*
X83913893Y-97657868D01*
X83892850Y-97670480D01*
X83870671Y-97680970D01*
X83847572Y-97689235D01*
X83823773Y-97695196D01*
X83799505Y-97698796D01*
X83775001Y-97700000D01*
X83124999Y-97700000D01*
X83100495Y-97698796D01*
X83076227Y-97695196D01*
X83052428Y-97689235D01*
X83029329Y-97680970D01*
X83007150Y-97670480D01*
X82986107Y-97657868D01*
X82966401Y-97643253D01*
X82948223Y-97626777D01*
X82931747Y-97608599D01*
X82917132Y-97588893D01*
X82904520Y-97567850D01*
X82894030Y-97545671D01*
X82885765Y-97522572D01*
X82879804Y-97498773D01*
X82876204Y-97474505D01*
X82875000Y-97450001D01*
X82875000Y-96549999D01*
X82876204Y-96525495D01*
X82879804Y-96501227D01*
X82885765Y-96477428D01*
X82894030Y-96454329D01*
X82904520Y-96432150D01*
X82917132Y-96411107D01*
X82931747Y-96391401D01*
X82948223Y-96373223D01*
X82966401Y-96356747D01*
X82986107Y-96342132D01*
X83007150Y-96329520D01*
X83029329Y-96319030D01*
X83052428Y-96310765D01*
X83076227Y-96304804D01*
X83100495Y-96301204D01*
X83124999Y-96300000D01*
X83775001Y-96300000D01*
X83799505Y-96301204D01*
X83799505Y-96301204D01*
G37*
D11*
X83450000Y-97000000D03*
G04 #@! TD*
D10*
G04 #@! TO.C,C14*
G36*
X50974505Y-69901204D02*
X50998773Y-69904804D01*
X51022572Y-69910765D01*
X51045671Y-69919030D01*
X51067850Y-69929520D01*
X51088893Y-69942132D01*
X51108599Y-69956747D01*
X51126777Y-69973223D01*
X51143253Y-69991401D01*
X51157868Y-70011107D01*
X51170480Y-70032150D01*
X51180970Y-70054329D01*
X51189235Y-70077428D01*
X51195196Y-70101227D01*
X51198796Y-70125495D01*
X51200000Y-70149999D01*
X51200000Y-70800001D01*
X51198796Y-70824505D01*
X51195196Y-70848773D01*
X51189235Y-70872572D01*
X51180970Y-70895671D01*
X51170480Y-70917850D01*
X51157868Y-70938893D01*
X51143253Y-70958599D01*
X51126777Y-70976777D01*
X51108599Y-70993253D01*
X51088893Y-71007868D01*
X51067850Y-71020480D01*
X51045671Y-71030970D01*
X51022572Y-71039235D01*
X50998773Y-71045196D01*
X50974505Y-71048796D01*
X50950001Y-71050000D01*
X50049999Y-71050000D01*
X50025495Y-71048796D01*
X50001227Y-71045196D01*
X49977428Y-71039235D01*
X49954329Y-71030970D01*
X49932150Y-71020480D01*
X49911107Y-71007868D01*
X49891401Y-70993253D01*
X49873223Y-70976777D01*
X49856747Y-70958599D01*
X49842132Y-70938893D01*
X49829520Y-70917850D01*
X49819030Y-70895671D01*
X49810765Y-70872572D01*
X49804804Y-70848773D01*
X49801204Y-70824505D01*
X49800000Y-70800001D01*
X49800000Y-70149999D01*
X49801204Y-70125495D01*
X49804804Y-70101227D01*
X49810765Y-70077428D01*
X49819030Y-70054329D01*
X49829520Y-70032150D01*
X49842132Y-70011107D01*
X49856747Y-69991401D01*
X49873223Y-69973223D01*
X49891401Y-69956747D01*
X49911107Y-69942132D01*
X49932150Y-69929520D01*
X49954329Y-69919030D01*
X49977428Y-69910765D01*
X50001227Y-69904804D01*
X50025495Y-69901204D01*
X50049999Y-69900000D01*
X50950001Y-69900000D01*
X50974505Y-69901204D01*
X50974505Y-69901204D01*
G37*
D11*
X50500000Y-70475000D03*
D10*
G36*
X50974505Y-71951204D02*
X50998773Y-71954804D01*
X51022572Y-71960765D01*
X51045671Y-71969030D01*
X51067850Y-71979520D01*
X51088893Y-71992132D01*
X51108599Y-72006747D01*
X51126777Y-72023223D01*
X51143253Y-72041401D01*
X51157868Y-72061107D01*
X51170480Y-72082150D01*
X51180970Y-72104329D01*
X51189235Y-72127428D01*
X51195196Y-72151227D01*
X51198796Y-72175495D01*
X51200000Y-72199999D01*
X51200000Y-72850001D01*
X51198796Y-72874505D01*
X51195196Y-72898773D01*
X51189235Y-72922572D01*
X51180970Y-72945671D01*
X51170480Y-72967850D01*
X51157868Y-72988893D01*
X51143253Y-73008599D01*
X51126777Y-73026777D01*
X51108599Y-73043253D01*
X51088893Y-73057868D01*
X51067850Y-73070480D01*
X51045671Y-73080970D01*
X51022572Y-73089235D01*
X50998773Y-73095196D01*
X50974505Y-73098796D01*
X50950001Y-73100000D01*
X50049999Y-73100000D01*
X50025495Y-73098796D01*
X50001227Y-73095196D01*
X49977428Y-73089235D01*
X49954329Y-73080970D01*
X49932150Y-73070480D01*
X49911107Y-73057868D01*
X49891401Y-73043253D01*
X49873223Y-73026777D01*
X49856747Y-73008599D01*
X49842132Y-72988893D01*
X49829520Y-72967850D01*
X49819030Y-72945671D01*
X49810765Y-72922572D01*
X49804804Y-72898773D01*
X49801204Y-72874505D01*
X49800000Y-72850001D01*
X49800000Y-72199999D01*
X49801204Y-72175495D01*
X49804804Y-72151227D01*
X49810765Y-72127428D01*
X49819030Y-72104329D01*
X49829520Y-72082150D01*
X49842132Y-72061107D01*
X49856747Y-72041401D01*
X49873223Y-72023223D01*
X49891401Y-72006747D01*
X49911107Y-71992132D01*
X49932150Y-71979520D01*
X49954329Y-71969030D01*
X49977428Y-71960765D01*
X50001227Y-71954804D01*
X50025495Y-71951204D01*
X50049999Y-71950000D01*
X50950001Y-71950000D01*
X50974505Y-71951204D01*
X50974505Y-71951204D01*
G37*
D11*
X50500000Y-72525000D03*
G04 #@! TD*
D12*
G04 #@! TO.C,D1*
X34000000Y-108850000D03*
X34000000Y-112150000D03*
G04 #@! TD*
G04 #@! TO.C,D2*
X66000000Y-111350000D03*
X66000000Y-114650000D03*
G04 #@! TD*
G04 #@! TO.C,D3*
X85000000Y-111350000D03*
X85000000Y-114650000D03*
G04 #@! TD*
G04 #@! TO.C,D4*
X104000000Y-111350000D03*
X104000000Y-114650000D03*
G04 #@! TD*
G04 #@! TO.C,D5*
X110000000Y-111350000D03*
X110000000Y-114650000D03*
G04 #@! TD*
G04 #@! TO.C,D6*
X142000000Y-111350000D03*
X142000000Y-114650000D03*
G04 #@! TD*
G04 #@! TO.C,D7*
X161000000Y-111350000D03*
X161000000Y-114650000D03*
G04 #@! TD*
G04 #@! TO.C,D8*
X180000000Y-111350000D03*
X180000000Y-114650000D03*
G04 #@! TD*
G04 #@! TO.C,D9*
X199000000Y-111350000D03*
X199000000Y-114650000D03*
G04 #@! TD*
G04 #@! TO.C,D10*
X218000000Y-103350000D03*
X218000000Y-106650000D03*
G04 #@! TD*
G04 #@! TO.C,D11*
X47000000Y-122350000D03*
X47000000Y-125650000D03*
G04 #@! TD*
G04 #@! TO.C,D12*
X66000000Y-130350000D03*
X66000000Y-133650000D03*
G04 #@! TD*
G04 #@! TO.C,D13*
X85000000Y-130350000D03*
X85000000Y-133650000D03*
G04 #@! TD*
G04 #@! TO.C,D14*
X104168000Y-130350000D03*
X104168000Y-133650000D03*
G04 #@! TD*
G04 #@! TO.C,D15*
X110000000Y-130350000D03*
X110000000Y-133650000D03*
G04 #@! TD*
G04 #@! TO.C,D16*
X142000000Y-130350000D03*
X142000000Y-133650000D03*
G04 #@! TD*
G04 #@! TO.C,D17*
X161000000Y-130350000D03*
X161000000Y-133650000D03*
G04 #@! TD*
G04 #@! TO.C,D18*
X180000000Y-130350000D03*
X180000000Y-133650000D03*
G04 #@! TD*
G04 #@! TO.C,D19*
X199000000Y-130350000D03*
X199000000Y-133650000D03*
G04 #@! TD*
G04 #@! TO.C,D20*
X218000000Y-122675000D03*
X218000000Y-125975000D03*
G04 #@! TD*
G04 #@! TO.C,D21*
X47000000Y-141350000D03*
X47000000Y-144650000D03*
G04 #@! TD*
G04 #@! TO.C,D22*
X66000000Y-149350000D03*
X66000000Y-152650000D03*
G04 #@! TD*
G04 #@! TO.C,D23*
X85000000Y-149350000D03*
X85000000Y-152650000D03*
G04 #@! TD*
G04 #@! TO.C,D24*
X104000000Y-149350000D03*
X104000000Y-152650000D03*
G04 #@! TD*
G04 #@! TO.C,D25*
X110000000Y-149350000D03*
X110000000Y-152650000D03*
G04 #@! TD*
G04 #@! TO.C,D26*
X142000000Y-149350000D03*
X142000000Y-152650000D03*
G04 #@! TD*
G04 #@! TO.C,D27*
X161000000Y-149350000D03*
X161000000Y-152650000D03*
G04 #@! TD*
G04 #@! TO.C,D28*
X180000000Y-149350000D03*
X180000000Y-152650000D03*
G04 #@! TD*
G04 #@! TO.C,D29*
X199000000Y-149350000D03*
X199000000Y-152650000D03*
G04 #@! TD*
G04 #@! TO.C,D30*
X218000000Y-141350000D03*
X218000000Y-144650000D03*
G04 #@! TD*
G04 #@! TO.C,D31*
X47000000Y-160850000D03*
X47000000Y-164150000D03*
G04 #@! TD*
G04 #@! TO.C,D32*
X66000000Y-168350000D03*
X66000000Y-171650000D03*
G04 #@! TD*
G04 #@! TO.C,D33*
X85000000Y-168350000D03*
X85000000Y-171650000D03*
G04 #@! TD*
G04 #@! TO.C,D34*
X104000000Y-168350000D03*
X104000000Y-171650000D03*
G04 #@! TD*
G04 #@! TO.C,D35*
X110000000Y-168350000D03*
X110000000Y-171650000D03*
G04 #@! TD*
G04 #@! TO.C,D36*
X145000000Y-170350000D03*
X145000000Y-173650000D03*
G04 #@! TD*
G04 #@! TO.C,D37*
X161000000Y-168350000D03*
X161000000Y-171650000D03*
G04 #@! TD*
G04 #@! TO.C,D38*
X180000000Y-168350000D03*
X180000000Y-171650000D03*
G04 #@! TD*
G04 #@! TO.C,D39*
X199000000Y-168350000D03*
X199000000Y-171650000D03*
G04 #@! TD*
G04 #@! TO.C,D40*
X218000000Y-160850000D03*
X218000000Y-164150000D03*
G04 #@! TD*
D13*
G04 #@! TO.C,IC1*
X34500000Y-80750000D03*
X35300000Y-80750000D03*
X36100000Y-80750000D03*
X36900000Y-80750000D03*
X37700000Y-80750000D03*
X38500000Y-80750000D03*
X39300000Y-80750000D03*
X40100000Y-80750000D03*
X40900000Y-80750000D03*
X41700000Y-80750000D03*
X42500000Y-80750000D03*
D14*
X44250000Y-79000000D03*
X44250000Y-78200000D03*
X44250000Y-77400000D03*
X44250000Y-76600000D03*
X44250000Y-75800000D03*
X44250000Y-75000000D03*
X44250000Y-74200000D03*
X44250000Y-73400000D03*
X44250000Y-72600000D03*
X44250000Y-71800000D03*
X44250000Y-71000000D03*
D13*
X42500000Y-69250000D03*
X41700000Y-69250000D03*
X40900000Y-69250000D03*
X40100000Y-69250000D03*
X39300000Y-69250000D03*
X38500000Y-69250000D03*
X37700000Y-69250000D03*
X36900000Y-69250000D03*
X36100000Y-69250000D03*
X35300000Y-69250000D03*
X34500000Y-69250000D03*
D14*
X32750000Y-71000000D03*
X32750000Y-71800000D03*
X32750000Y-72600000D03*
X32750000Y-73400000D03*
X32750000Y-74200000D03*
X32750000Y-75000000D03*
X32750000Y-75800000D03*
X32750000Y-76600000D03*
X32750000Y-77400000D03*
X32750000Y-78200000D03*
X32750000Y-79000000D03*
G04 #@! TD*
D15*
G04 #@! TO.C,U1*
X188050000Y-102650000D03*
X189330000Y-102650000D03*
X190590000Y-102650000D03*
X191860000Y-102650000D03*
X193140000Y-102650000D03*
X194410000Y-102650000D03*
X195670000Y-102650000D03*
X196950000Y-102650000D03*
X196950000Y-96350000D03*
X195670000Y-96350000D03*
X194410000Y-96350000D03*
X193140000Y-96350000D03*
X191860000Y-96350000D03*
X190590000Y-96350000D03*
X189330000Y-96350000D03*
X188050000Y-96350000D03*
G04 #@! TD*
G04 #@! TO.C,U4*
X50442000Y-125746000D03*
X51722000Y-125746000D03*
X52982000Y-125746000D03*
X54252000Y-125746000D03*
X55532000Y-125746000D03*
X56802000Y-125746000D03*
X58062000Y-125746000D03*
X59342000Y-125746000D03*
X59342000Y-119446000D03*
X58062000Y-119446000D03*
X56802000Y-119446000D03*
X55532000Y-119446000D03*
X54252000Y-119446000D03*
X52982000Y-119446000D03*
X51722000Y-119446000D03*
X50442000Y-119446000D03*
G04 #@! TD*
G04 #@! TO.C,U5*
X121562000Y-95062000D03*
X122842000Y-95062000D03*
X124102000Y-95062000D03*
X125372000Y-95062000D03*
X126652000Y-95062000D03*
X127922000Y-95062000D03*
X129182000Y-95062000D03*
X130462000Y-95062000D03*
X130462000Y-101362000D03*
X129182000Y-101362000D03*
X127922000Y-101362000D03*
X126652000Y-101362000D03*
X125372000Y-101362000D03*
X124102000Y-101362000D03*
X122842000Y-101362000D03*
X121562000Y-101362000D03*
G04 #@! TD*
G04 #@! TO.C,U6*
X121562000Y-120158000D03*
X122842000Y-120158000D03*
X124102000Y-120158000D03*
X125372000Y-120158000D03*
X126652000Y-120158000D03*
X127922000Y-120158000D03*
X129182000Y-120158000D03*
X130462000Y-120158000D03*
X130462000Y-113858000D03*
X129182000Y-113858000D03*
X127922000Y-113858000D03*
X126652000Y-113858000D03*
X125372000Y-113858000D03*
X124102000Y-113858000D03*
X122842000Y-113858000D03*
X121562000Y-113858000D03*
G04 #@! TD*
G04 #@! TO.C,U7*
X121562000Y-132908000D03*
X122842000Y-132908000D03*
X124102000Y-132908000D03*
X125372000Y-132908000D03*
X126652000Y-132908000D03*
X127922000Y-132908000D03*
X129182000Y-132908000D03*
X130462000Y-132908000D03*
X130462000Y-139208000D03*
X129182000Y-139208000D03*
X127922000Y-139208000D03*
X126652000Y-139208000D03*
X125372000Y-139208000D03*
X124102000Y-139208000D03*
X122842000Y-139208000D03*
X121562000Y-139208000D03*
G04 #@! TD*
G04 #@! TO.C,U8*
X121550000Y-151850000D03*
X122830000Y-151850000D03*
X124090000Y-151850000D03*
X125360000Y-151850000D03*
X126640000Y-151850000D03*
X127910000Y-151850000D03*
X129170000Y-151850000D03*
X130450000Y-151850000D03*
X130450000Y-158150000D03*
X129170000Y-158150000D03*
X127910000Y-158150000D03*
X126640000Y-158150000D03*
X125360000Y-158150000D03*
X124090000Y-158150000D03*
X122830000Y-158150000D03*
X121550000Y-158150000D03*
G04 #@! TD*
G04 #@! TO.C,U10*
X169050000Y-96350000D03*
X170330000Y-96350000D03*
X171590000Y-96350000D03*
X172860000Y-96350000D03*
X174140000Y-96350000D03*
X175410000Y-96350000D03*
X176670000Y-96350000D03*
X177950000Y-96350000D03*
X177950000Y-102650000D03*
X176670000Y-102650000D03*
X175410000Y-102650000D03*
X174140000Y-102650000D03*
X172860000Y-102650000D03*
X171590000Y-102650000D03*
X170330000Y-102650000D03*
X169050000Y-102650000D03*
G04 #@! TD*
M02*
