M48
;DRILL file {KiCad (5.0.0)} date 11/03/18 08:26:02
;FORMAT={3:3/ absolute / metric / suppress leading zeros}
FMAT,2
METRIC,TZ
T1C0.400
T2C0.750
T3C0.762
T4C0.800
T5C1.000
T6C1.016
T7C1.200
T8C1.550
T9C3.280
T10C4.100
T11C1.600
T12C2.581
T13C3.200
%
G90
G05
M71
T1
X31916Y-81139
X34294Y-78127
X34444Y-107343
X34828Y-76654
X35361Y-73455
X35614Y-75861
X36235Y-86306
X37458Y-65740
X37958Y-67641
X38388Y-60311
X38982Y-86429
X39414Y-63098
X39868Y-66629
X39926Y-77791
X41425Y-88631
X41887Y-84412
X41891Y-75135
X42445Y-78696
X42448Y-70735
X42624Y-114842
X42804Y-85625
X45239Y-84871
X45436Y-57707
X45611Y-75861
X45849Y-74149
X46054Y-79934
X46253Y-127873
X47145Y-60627
X47346Y-150909
X47679Y-81697
X47760Y-127936
X49795Y-54077
X49828Y-59227
X50577Y-59892
X51063Y-124495
X51442Y-122718
X51603Y-60918
X51900Y-127007
X52621Y-116679
X53002Y-91247
X53163Y-79934
X53220Y-122475
X53559Y-120875
X53873Y-118115
X54095Y-91247
X54303Y-122443
X55128Y-123459
X55905Y-75861
X56346Y-124476
X58936Y-75890
X61353Y-123735
X61994Y-122392
X62756Y-116175
X64355Y-119343
X65068Y-76238
X65716Y-61869
X65904Y-154945
X66067Y-135900
X68215Y-61147
X68694Y-71232
X72607Y-63961
X73415Y-79620
X74056Y-70456
X80413Y-59418
X82865Y-133978
X84338Y-153846
X85729Y-105406
X87181Y-87182
X95765Y-68093
X95855Y-89304
X97934Y-96015
X98225Y-78206
X98488Y-66247
X98500Y-97858
X100415Y-62111
X101218Y-75800
X105847Y-92407
X106517Y-74905
X106793Y-91152
X109724Y-68851
X109894Y-53636
X110113Y-96868
X111783Y-68126
X111954Y-127630
X112690Y-106501
X112917Y-100043
X113530Y-61946
X114572Y-68367
X115977Y-102423
X116660Y-105406
X117180Y-65054
X118232Y-65033
X118356Y-54403
X118935Y-106574
X119015Y-121036
X119330Y-66083
X119435Y-110503
X120558Y-100739
X120640Y-136745
X120676Y-137941
X121130Y-115511
X121847Y-171040
X121989Y-102618
X122114Y-118883
X122831Y-108362
X122832Y-124627
X122858Y-134611
X122875Y-69758
X122959Y-159499
X123039Y-131166
X123309Y-143473
X123961Y-61653
X124863Y-64797
X125700Y-127616
X125760Y-105433
X125947Y-137941
X126264Y-140529
X126721Y-68859
X126807Y-150561
X126854Y-146186
X127640Y-144757
X128451Y-60460
X128528Y-117730
X128716Y-84471
X129012Y-156440
X129043Y-153412
X129238Y-169259
X129571Y-121767
X129712Y-109477
X130952Y-115940
X131395Y-99007
X132186Y-163897
X132219Y-137155
X132504Y-138989
X135341Y-88960
X136587Y-62566
X138020Y-98018
X138246Y-106636
X138793Y-167369
X138826Y-159644
X139544Y-65548
X139652Y-73559
X140534Y-66513
X141249Y-67218
X141664Y-146365
X141699Y-135918
X142286Y-113594
X142309Y-151596
X142440Y-62512
X142852Y-66705
X143026Y-106621
X143584Y-63656
X147977Y-122109
X149013Y-127166
X149159Y-163897
X150379Y-69214
X154360Y-125203
X156436Y-173955
X156976Y-140842
X157275Y-106041
X159009Y-81624
X160077Y-165373
X161259Y-154900
X161304Y-135918
X161745Y-85257
X163227Y-171268
X164723Y-98338
X165860Y-99895
X168019Y-96150
X168020Y-103526
X168259Y-108579
X170417Y-144185
X172629Y-106522
X172709Y-107522
X175195Y-162891
X176499Y-122403
X178426Y-105578
X180069Y-154900
X180118Y-112928
X180637Y-100698
X180645Y-135918
X182303Y-163402
X184100Y-93206
X184229Y-95619
X189429Y-124229
X190580Y-98063
X195807Y-135918
X196201Y-171924
X196987Y-114415
X197460Y-104825
X197830Y-162165
X197969Y-96499
X198108Y-143188
X198173Y-154945
X200529Y-119884
X202499Y-142000
X216485Y-101038
X216766Y-158429
T2
X181500Y-74875
X184000Y-74875
X186500Y-74875
X57000Y-178375
X59500Y-178375
X62000Y-178375
X211500Y-91875
X214000Y-91875
X216500Y-91875
X95000Y-178375
X97500Y-178375
X100000Y-178375
X133000Y-178375
X135500Y-178375
X138000Y-178375
X211500Y-74875
X214000Y-74875
X216500Y-74875
X190000Y-178375
X192500Y-178375
X195000Y-178375
X76000Y-178375
X78500Y-178375
X81000Y-178375
X166500Y-74875
X169000Y-74875
X171500Y-74875
X166500Y-91875
X169000Y-91875
X171500Y-91875
X114000Y-178375
X116500Y-178375
X119000Y-178375
X196500Y-74875
X199000Y-74875
X201500Y-74875
X152000Y-178375
X154500Y-178375
X157000Y-178375
X181500Y-91875
X184000Y-91875
X186500Y-91875
X196500Y-91875
X199000Y-91875
X201500Y-91875
X171000Y-178375
X173500Y-178375
X176000Y-178375
T3
X157600Y-71340
X157600Y-73880
X157600Y-76420
X157600Y-78960
X157600Y-81500
X157600Y-84040
X157600Y-86580
X157600Y-89120
X157600Y-91660
X61380Y-55440
X61380Y-57940
X61380Y-65600
X69000Y-65600
X71540Y-65600
X74070Y-65600
X76620Y-55460
X76620Y-57970
X76620Y-65600
T4
X72000Y-72000
X72000Y-74540
X72000Y-77080
X72000Y-79620
X72000Y-82160
X72000Y-84700
X72000Y-87240
X72000Y-89780
X72000Y-92320
X115852Y-104000
X118392Y-104000
X120932Y-104000
X123472Y-104000
X126012Y-104000
X128552Y-104000
X131092Y-104000
X133632Y-104000
X136172Y-104000
X115852Y-161000
X118392Y-161000
X120932Y-161000
X123472Y-161000
X126012Y-161000
X128552Y-161000
X131092Y-161000
X133632Y-161000
X136172Y-161000
X52000Y-97500
X54540Y-97500
X57080Y-97500
X59620Y-97500
X62160Y-97500
X64700Y-97500
X67240Y-97500
X69780Y-97500
X72320Y-97500
X115852Y-142000
X118392Y-142000
X120932Y-142000
X123472Y-142000
X126012Y-142000
X128552Y-142000
X131092Y-142000
X133632Y-142000
X136172Y-142000
X115852Y-123104
X118392Y-123104
X120932Y-123104
X123472Y-123104
X126012Y-123104
X128552Y-123104
X131092Y-123104
X133632Y-123104
X136172Y-123104
T5
X84000Y-56000
X84000Y-58540
X86540Y-56000
X86540Y-58540
X89080Y-56000
X89080Y-58540
X91620Y-56000
X91620Y-58540
X94160Y-56000
X94160Y-58540
X96700Y-56000
X96700Y-58540
X99240Y-56000
X99240Y-58540
X101780Y-56000
X101780Y-58540
X104320Y-56000
X104320Y-58540
X106860Y-56000
X106860Y-58540
X109400Y-56000
X109400Y-58540
X111940Y-56000
X111940Y-58540
X114480Y-56000
X114480Y-58540
X117020Y-56000
X117020Y-58540
X119560Y-56000
X119560Y-58540
X122100Y-56000
X122100Y-58540
X124640Y-56000
X124640Y-58540
X127180Y-56000
X127180Y-58540
X129720Y-56000
X129720Y-58540
X132260Y-56000
X132260Y-58540
X134800Y-56000
X134800Y-58540
X137340Y-56000
X137340Y-58540
X139880Y-56000
X139880Y-58540
X142420Y-56000
X142420Y-58540
X144960Y-56000
X144960Y-58540
X147500Y-56000
X147500Y-58540
X150040Y-56000
X150040Y-58540
X152580Y-56000
X152580Y-58540
X155120Y-56000
X155120Y-58540
X157660Y-56000
X157660Y-58540
X50700Y-83225
X50700Y-87750
X51450Y-65225
X54000Y-65225
X56450Y-65225
X57200Y-83225
X57200Y-87750
X63700Y-72475
X63700Y-75000
X63700Y-77475
T6
X98631Y-71288
X98631Y-86528
X101171Y-71288
X101171Y-86528
X103711Y-71288
X103711Y-86528
X106251Y-71288
X106251Y-86528
X108791Y-71288
X108791Y-86528
X111331Y-71288
X111331Y-86528
X113871Y-71288
X113871Y-86528
X116411Y-71288
X116411Y-86528
X118951Y-71288
X118951Y-86528
X121491Y-71288
X121491Y-86528
X124031Y-71288
X124031Y-86528
X126571Y-71288
X126571Y-86528
X129111Y-71288
X129111Y-86528
X131651Y-71288
X131651Y-86528
X134191Y-71288
X134191Y-86528
X136731Y-71288
X136731Y-86528
X139271Y-71288
X139271Y-86528
X141811Y-71288
X141811Y-86528
X143081Y-77628
X143081Y-80168
X144351Y-71288
X144351Y-86528
X146891Y-86528
X146942Y-71288
T7
X80500Y-85000
X80500Y-99500
X83000Y-99500
X85500Y-85000
X85500Y-99500
X80500Y-65000
X80500Y-79500
X83000Y-79500
X85500Y-65000
X85500Y-79500
T8
X169690Y-167960
X176040Y-165420
X169690Y-148960
X176040Y-146420
X36690Y-140460
X43040Y-137920
X207690Y-102460
X214040Y-99920
X36690Y-159460
X43040Y-156920
X93690Y-110960
X100040Y-108420
X55690Y-110960
X62040Y-108420
X131690Y-167960
X138040Y-165420
X150690Y-148960
X157040Y-146420
X93690Y-167960
X100040Y-165420
X188690Y-148960
X195040Y-146420
X112690Y-110960
X119040Y-108420
X74690Y-110960
X81040Y-108420
X112690Y-148960
X119040Y-146420
X131690Y-148960
X138040Y-146420
X55690Y-129960
X62040Y-127420
X169690Y-110960
X176040Y-108420
X55690Y-148960
X62040Y-146420
X188690Y-110960
X195040Y-108420
X36690Y-102460
X43040Y-99920
X55690Y-167960
X62040Y-165420
X74690Y-148960
X81040Y-146420
X131690Y-110960
X138040Y-108420
X188690Y-129960
X195040Y-127420
X112690Y-167960
X119040Y-165420
X74690Y-129960
X81040Y-127420
X112690Y-129960
X119040Y-127420
X150690Y-167960
X157040Y-165420
X207690Y-159460
X214040Y-156920
X150690Y-129960
X157040Y-127420
X207690Y-140460
X214040Y-137920
X93690Y-148960
X100040Y-146420
X131690Y-129960
X138040Y-127420
X169690Y-129960
X176040Y-127420
X188690Y-167960
X195040Y-165420
X150690Y-110960
X157040Y-108420
X207690Y-121460
X214040Y-118920
X36690Y-121460
X43040Y-118920
X74690Y-167960
X81040Y-165420
X93690Y-129960
X100040Y-127420
T9
X77400Y-92000
X88600Y-92000
X77400Y-72000
X88600Y-72000
T10
X59500Y-113500
X135500Y-170500
X154500Y-151500
X97500Y-170500
X192500Y-151500
X116500Y-113500
X78500Y-113500
X116500Y-151500
X135500Y-151500
X59500Y-132500
X173500Y-113500
X59500Y-151500
X192500Y-113500
X40500Y-105000
X59500Y-170500
X78500Y-151500
X135500Y-113500
X192500Y-132500
X116500Y-170500
X78500Y-132500
X116500Y-132500
X154500Y-170500
X211500Y-162000
X154500Y-132500
X211500Y-143000
X97500Y-151500
X135500Y-132500
X173500Y-132500
X192500Y-170500
X154500Y-113500
X211500Y-124000
X40500Y-124000
X78500Y-170500
X97500Y-132500
X173500Y-170500
X173500Y-151500
X40500Y-143000
X211500Y-105000
X40500Y-162000
X97500Y-113500
T11
X46200Y-68350
X46200Y-81650
X61700Y-68350
X61700Y-81625
T12
X209350Y-67875
X218650Y-67875
X187850Y-175075
X197150Y-175075
X73850Y-175075
X83150Y-175075
X164350Y-67875
X173650Y-67875
X164350Y-84875
X173650Y-84875
X111850Y-175075
X121150Y-175075
X194350Y-67875
X203650Y-67875
X149850Y-175075
X159150Y-175075
X179350Y-84875
X188650Y-84875
X194350Y-84875
X203650Y-84875
X168850Y-175075
X178150Y-175075
X179350Y-67875
X188650Y-67875
X54850Y-175075
X64150Y-175075
X209350Y-84875
X218650Y-84875
X92850Y-175075
X102150Y-175075
X130850Y-175075
X140150Y-175075
T13
X35000Y-175000
X36000Y-58000
X216500Y-58000
X95400Y-64000
X95400Y-99000
X156600Y-64000
X156600Y-99000
X217000Y-175000
T0
M30
