G04 #@! TF.GenerationSoftware,KiCad,Pcbnew,(5.0.0)*
G04 #@! TF.CreationDate,2018-11-03T08:25:57+09:00*
G04 #@! TF.ProjectId,techinup_if,74656368696E75705F69662E6B696361,rev?*
G04 #@! TF.SameCoordinates,Original*
G04 #@! TF.FileFunction,Paste,Top*
G04 #@! TF.FilePolarity,Positive*
%FSLAX46Y46*%
G04 Gerber Fmt 4.6, Leading zero omitted, Abs format (unit mm)*
G04 Created by KiCad (PCBNEW (5.0.0)) date 11/03/18 08:25:57*
%MOMM*%
%LPD*%
G01*
G04 APERTURE LIST*
%ADD10C,0.100000*%
%ADD11C,1.150000*%
%ADD12C,1.425000*%
%ADD13C,0.950000*%
%ADD14R,4.500000X2.000000*%
G04 APERTURE END LIST*
D10*
G04 #@! TO.C,C1*
G36*
X165349505Y-101801204D02*
X165373773Y-101804804D01*
X165397572Y-101810765D01*
X165420671Y-101819030D01*
X165442850Y-101829520D01*
X165463893Y-101842132D01*
X165483599Y-101856747D01*
X165501777Y-101873223D01*
X165518253Y-101891401D01*
X165532868Y-101911107D01*
X165545480Y-101932150D01*
X165555970Y-101954329D01*
X165564235Y-101977428D01*
X165570196Y-102001227D01*
X165573796Y-102025495D01*
X165575000Y-102049999D01*
X165575000Y-102950001D01*
X165573796Y-102974505D01*
X165570196Y-102998773D01*
X165564235Y-103022572D01*
X165555970Y-103045671D01*
X165545480Y-103067850D01*
X165532868Y-103088893D01*
X165518253Y-103108599D01*
X165501777Y-103126777D01*
X165483599Y-103143253D01*
X165463893Y-103157868D01*
X165442850Y-103170480D01*
X165420671Y-103180970D01*
X165397572Y-103189235D01*
X165373773Y-103195196D01*
X165349505Y-103198796D01*
X165325001Y-103200000D01*
X164674999Y-103200000D01*
X164650495Y-103198796D01*
X164626227Y-103195196D01*
X164602428Y-103189235D01*
X164579329Y-103180970D01*
X164557150Y-103170480D01*
X164536107Y-103157868D01*
X164516401Y-103143253D01*
X164498223Y-103126777D01*
X164481747Y-103108599D01*
X164467132Y-103088893D01*
X164454520Y-103067850D01*
X164444030Y-103045671D01*
X164435765Y-103022572D01*
X164429804Y-102998773D01*
X164426204Y-102974505D01*
X164425000Y-102950001D01*
X164425000Y-102049999D01*
X164426204Y-102025495D01*
X164429804Y-102001227D01*
X164435765Y-101977428D01*
X164444030Y-101954329D01*
X164454520Y-101932150D01*
X164467132Y-101911107D01*
X164481747Y-101891401D01*
X164498223Y-101873223D01*
X164516401Y-101856747D01*
X164536107Y-101842132D01*
X164557150Y-101829520D01*
X164579329Y-101819030D01*
X164602428Y-101810765D01*
X164626227Y-101804804D01*
X164650495Y-101801204D01*
X164674999Y-101800000D01*
X165325001Y-101800000D01*
X165349505Y-101801204D01*
X165349505Y-101801204D01*
G37*
D11*
X165000000Y-102500000D03*
D10*
G36*
X167399505Y-101801204D02*
X167423773Y-101804804D01*
X167447572Y-101810765D01*
X167470671Y-101819030D01*
X167492850Y-101829520D01*
X167513893Y-101842132D01*
X167533599Y-101856747D01*
X167551777Y-101873223D01*
X167568253Y-101891401D01*
X167582868Y-101911107D01*
X167595480Y-101932150D01*
X167605970Y-101954329D01*
X167614235Y-101977428D01*
X167620196Y-102001227D01*
X167623796Y-102025495D01*
X167625000Y-102049999D01*
X167625000Y-102950001D01*
X167623796Y-102974505D01*
X167620196Y-102998773D01*
X167614235Y-103022572D01*
X167605970Y-103045671D01*
X167595480Y-103067850D01*
X167582868Y-103088893D01*
X167568253Y-103108599D01*
X167551777Y-103126777D01*
X167533599Y-103143253D01*
X167513893Y-103157868D01*
X167492850Y-103170480D01*
X167470671Y-103180970D01*
X167447572Y-103189235D01*
X167423773Y-103195196D01*
X167399505Y-103198796D01*
X167375001Y-103200000D01*
X166724999Y-103200000D01*
X166700495Y-103198796D01*
X166676227Y-103195196D01*
X166652428Y-103189235D01*
X166629329Y-103180970D01*
X166607150Y-103170480D01*
X166586107Y-103157868D01*
X166566401Y-103143253D01*
X166548223Y-103126777D01*
X166531747Y-103108599D01*
X166517132Y-103088893D01*
X166504520Y-103067850D01*
X166494030Y-103045671D01*
X166485765Y-103022572D01*
X166479804Y-102998773D01*
X166476204Y-102974505D01*
X166475000Y-102950001D01*
X166475000Y-102049999D01*
X166476204Y-102025495D01*
X166479804Y-102001227D01*
X166485765Y-101977428D01*
X166494030Y-101954329D01*
X166504520Y-101932150D01*
X166517132Y-101911107D01*
X166531747Y-101891401D01*
X166548223Y-101873223D01*
X166566401Y-101856747D01*
X166586107Y-101842132D01*
X166607150Y-101829520D01*
X166629329Y-101819030D01*
X166652428Y-101810765D01*
X166676227Y-101804804D01*
X166700495Y-101801204D01*
X166724999Y-101800000D01*
X167375001Y-101800000D01*
X167399505Y-101801204D01*
X167399505Y-101801204D01*
G37*
D11*
X167050000Y-102500000D03*
G04 #@! TD*
D10*
G04 #@! TO.C,C2*
G36*
X184349505Y-101801204D02*
X184373773Y-101804804D01*
X184397572Y-101810765D01*
X184420671Y-101819030D01*
X184442850Y-101829520D01*
X184463893Y-101842132D01*
X184483599Y-101856747D01*
X184501777Y-101873223D01*
X184518253Y-101891401D01*
X184532868Y-101911107D01*
X184545480Y-101932150D01*
X184555970Y-101954329D01*
X184564235Y-101977428D01*
X184570196Y-102001227D01*
X184573796Y-102025495D01*
X184575000Y-102049999D01*
X184575000Y-102950001D01*
X184573796Y-102974505D01*
X184570196Y-102998773D01*
X184564235Y-103022572D01*
X184555970Y-103045671D01*
X184545480Y-103067850D01*
X184532868Y-103088893D01*
X184518253Y-103108599D01*
X184501777Y-103126777D01*
X184483599Y-103143253D01*
X184463893Y-103157868D01*
X184442850Y-103170480D01*
X184420671Y-103180970D01*
X184397572Y-103189235D01*
X184373773Y-103195196D01*
X184349505Y-103198796D01*
X184325001Y-103200000D01*
X183674999Y-103200000D01*
X183650495Y-103198796D01*
X183626227Y-103195196D01*
X183602428Y-103189235D01*
X183579329Y-103180970D01*
X183557150Y-103170480D01*
X183536107Y-103157868D01*
X183516401Y-103143253D01*
X183498223Y-103126777D01*
X183481747Y-103108599D01*
X183467132Y-103088893D01*
X183454520Y-103067850D01*
X183444030Y-103045671D01*
X183435765Y-103022572D01*
X183429804Y-102998773D01*
X183426204Y-102974505D01*
X183425000Y-102950001D01*
X183425000Y-102049999D01*
X183426204Y-102025495D01*
X183429804Y-102001227D01*
X183435765Y-101977428D01*
X183444030Y-101954329D01*
X183454520Y-101932150D01*
X183467132Y-101911107D01*
X183481747Y-101891401D01*
X183498223Y-101873223D01*
X183516401Y-101856747D01*
X183536107Y-101842132D01*
X183557150Y-101829520D01*
X183579329Y-101819030D01*
X183602428Y-101810765D01*
X183626227Y-101804804D01*
X183650495Y-101801204D01*
X183674999Y-101800000D01*
X184325001Y-101800000D01*
X184349505Y-101801204D01*
X184349505Y-101801204D01*
G37*
D11*
X184000000Y-102500000D03*
D10*
G36*
X186399505Y-101801204D02*
X186423773Y-101804804D01*
X186447572Y-101810765D01*
X186470671Y-101819030D01*
X186492850Y-101829520D01*
X186513893Y-101842132D01*
X186533599Y-101856747D01*
X186551777Y-101873223D01*
X186568253Y-101891401D01*
X186582868Y-101911107D01*
X186595480Y-101932150D01*
X186605970Y-101954329D01*
X186614235Y-101977428D01*
X186620196Y-102001227D01*
X186623796Y-102025495D01*
X186625000Y-102049999D01*
X186625000Y-102950001D01*
X186623796Y-102974505D01*
X186620196Y-102998773D01*
X186614235Y-103022572D01*
X186605970Y-103045671D01*
X186595480Y-103067850D01*
X186582868Y-103088893D01*
X186568253Y-103108599D01*
X186551777Y-103126777D01*
X186533599Y-103143253D01*
X186513893Y-103157868D01*
X186492850Y-103170480D01*
X186470671Y-103180970D01*
X186447572Y-103189235D01*
X186423773Y-103195196D01*
X186399505Y-103198796D01*
X186375001Y-103200000D01*
X185724999Y-103200000D01*
X185700495Y-103198796D01*
X185676227Y-103195196D01*
X185652428Y-103189235D01*
X185629329Y-103180970D01*
X185607150Y-103170480D01*
X185586107Y-103157868D01*
X185566401Y-103143253D01*
X185548223Y-103126777D01*
X185531747Y-103108599D01*
X185517132Y-103088893D01*
X185504520Y-103067850D01*
X185494030Y-103045671D01*
X185485765Y-103022572D01*
X185479804Y-102998773D01*
X185476204Y-102974505D01*
X185475000Y-102950001D01*
X185475000Y-102049999D01*
X185476204Y-102025495D01*
X185479804Y-102001227D01*
X185485765Y-101977428D01*
X185494030Y-101954329D01*
X185504520Y-101932150D01*
X185517132Y-101911107D01*
X185531747Y-101891401D01*
X185548223Y-101873223D01*
X185566401Y-101856747D01*
X185586107Y-101842132D01*
X185607150Y-101829520D01*
X185629329Y-101819030D01*
X185652428Y-101810765D01*
X185676227Y-101804804D01*
X185700495Y-101801204D01*
X185724999Y-101800000D01*
X186375001Y-101800000D01*
X186399505Y-101801204D01*
X186399505Y-101801204D01*
G37*
D11*
X186050000Y-102500000D03*
G04 #@! TD*
D10*
G04 #@! TO.C,C3*
G36*
X50540505Y-125324204D02*
X50564773Y-125327804D01*
X50588572Y-125333765D01*
X50611671Y-125342030D01*
X50633850Y-125352520D01*
X50654893Y-125365132D01*
X50674599Y-125379747D01*
X50692777Y-125396223D01*
X50709253Y-125414401D01*
X50723868Y-125434107D01*
X50736480Y-125455150D01*
X50746970Y-125477329D01*
X50755235Y-125500428D01*
X50761196Y-125524227D01*
X50764796Y-125548495D01*
X50766000Y-125572999D01*
X50766000Y-126223001D01*
X50764796Y-126247505D01*
X50761196Y-126271773D01*
X50755235Y-126295572D01*
X50746970Y-126318671D01*
X50736480Y-126340850D01*
X50723868Y-126361893D01*
X50709253Y-126381599D01*
X50692777Y-126399777D01*
X50674599Y-126416253D01*
X50654893Y-126430868D01*
X50633850Y-126443480D01*
X50611671Y-126453970D01*
X50588572Y-126462235D01*
X50564773Y-126468196D01*
X50540505Y-126471796D01*
X50516001Y-126473000D01*
X49615999Y-126473000D01*
X49591495Y-126471796D01*
X49567227Y-126468196D01*
X49543428Y-126462235D01*
X49520329Y-126453970D01*
X49498150Y-126443480D01*
X49477107Y-126430868D01*
X49457401Y-126416253D01*
X49439223Y-126399777D01*
X49422747Y-126381599D01*
X49408132Y-126361893D01*
X49395520Y-126340850D01*
X49385030Y-126318671D01*
X49376765Y-126295572D01*
X49370804Y-126271773D01*
X49367204Y-126247505D01*
X49366000Y-126223001D01*
X49366000Y-125572999D01*
X49367204Y-125548495D01*
X49370804Y-125524227D01*
X49376765Y-125500428D01*
X49385030Y-125477329D01*
X49395520Y-125455150D01*
X49408132Y-125434107D01*
X49422747Y-125414401D01*
X49439223Y-125396223D01*
X49457401Y-125379747D01*
X49477107Y-125365132D01*
X49498150Y-125352520D01*
X49520329Y-125342030D01*
X49543428Y-125333765D01*
X49567227Y-125327804D01*
X49591495Y-125324204D01*
X49615999Y-125323000D01*
X50516001Y-125323000D01*
X50540505Y-125324204D01*
X50540505Y-125324204D01*
G37*
D11*
X50066000Y-125898000D03*
D10*
G36*
X50540505Y-127374204D02*
X50564773Y-127377804D01*
X50588572Y-127383765D01*
X50611671Y-127392030D01*
X50633850Y-127402520D01*
X50654893Y-127415132D01*
X50674599Y-127429747D01*
X50692777Y-127446223D01*
X50709253Y-127464401D01*
X50723868Y-127484107D01*
X50736480Y-127505150D01*
X50746970Y-127527329D01*
X50755235Y-127550428D01*
X50761196Y-127574227D01*
X50764796Y-127598495D01*
X50766000Y-127622999D01*
X50766000Y-128273001D01*
X50764796Y-128297505D01*
X50761196Y-128321773D01*
X50755235Y-128345572D01*
X50746970Y-128368671D01*
X50736480Y-128390850D01*
X50723868Y-128411893D01*
X50709253Y-128431599D01*
X50692777Y-128449777D01*
X50674599Y-128466253D01*
X50654893Y-128480868D01*
X50633850Y-128493480D01*
X50611671Y-128503970D01*
X50588572Y-128512235D01*
X50564773Y-128518196D01*
X50540505Y-128521796D01*
X50516001Y-128523000D01*
X49615999Y-128523000D01*
X49591495Y-128521796D01*
X49567227Y-128518196D01*
X49543428Y-128512235D01*
X49520329Y-128503970D01*
X49498150Y-128493480D01*
X49477107Y-128480868D01*
X49457401Y-128466253D01*
X49439223Y-128449777D01*
X49422747Y-128431599D01*
X49408132Y-128411893D01*
X49395520Y-128390850D01*
X49385030Y-128368671D01*
X49376765Y-128345572D01*
X49370804Y-128321773D01*
X49367204Y-128297505D01*
X49366000Y-128273001D01*
X49366000Y-127622999D01*
X49367204Y-127598495D01*
X49370804Y-127574227D01*
X49376765Y-127550428D01*
X49385030Y-127527329D01*
X49395520Y-127505150D01*
X49408132Y-127484107D01*
X49422747Y-127464401D01*
X49439223Y-127446223D01*
X49457401Y-127429747D01*
X49477107Y-127415132D01*
X49498150Y-127402520D01*
X49520329Y-127392030D01*
X49543428Y-127383765D01*
X49567227Y-127377804D01*
X49591495Y-127374204D01*
X49615999Y-127373000D01*
X50516001Y-127373000D01*
X50540505Y-127374204D01*
X50540505Y-127374204D01*
G37*
D11*
X50066000Y-127948000D03*
G04 #@! TD*
D10*
G04 #@! TO.C,C4*
G36*
X125327505Y-100561204D02*
X125351773Y-100564804D01*
X125375572Y-100570765D01*
X125398671Y-100579030D01*
X125420850Y-100589520D01*
X125441893Y-100602132D01*
X125461599Y-100616747D01*
X125479777Y-100633223D01*
X125496253Y-100651401D01*
X125510868Y-100671107D01*
X125523480Y-100692150D01*
X125533970Y-100714329D01*
X125542235Y-100737428D01*
X125548196Y-100761227D01*
X125551796Y-100785495D01*
X125553000Y-100809999D01*
X125553000Y-101710001D01*
X125551796Y-101734505D01*
X125548196Y-101758773D01*
X125542235Y-101782572D01*
X125533970Y-101805671D01*
X125523480Y-101827850D01*
X125510868Y-101848893D01*
X125496253Y-101868599D01*
X125479777Y-101886777D01*
X125461599Y-101903253D01*
X125441893Y-101917868D01*
X125420850Y-101930480D01*
X125398671Y-101940970D01*
X125375572Y-101949235D01*
X125351773Y-101955196D01*
X125327505Y-101958796D01*
X125303001Y-101960000D01*
X124652999Y-101960000D01*
X124628495Y-101958796D01*
X124604227Y-101955196D01*
X124580428Y-101949235D01*
X124557329Y-101940970D01*
X124535150Y-101930480D01*
X124514107Y-101917868D01*
X124494401Y-101903253D01*
X124476223Y-101886777D01*
X124459747Y-101868599D01*
X124445132Y-101848893D01*
X124432520Y-101827850D01*
X124422030Y-101805671D01*
X124413765Y-101782572D01*
X124407804Y-101758773D01*
X124404204Y-101734505D01*
X124403000Y-101710001D01*
X124403000Y-100809999D01*
X124404204Y-100785495D01*
X124407804Y-100761227D01*
X124413765Y-100737428D01*
X124422030Y-100714329D01*
X124432520Y-100692150D01*
X124445132Y-100671107D01*
X124459747Y-100651401D01*
X124476223Y-100633223D01*
X124494401Y-100616747D01*
X124514107Y-100602132D01*
X124535150Y-100589520D01*
X124557329Y-100579030D01*
X124580428Y-100570765D01*
X124604227Y-100564804D01*
X124628495Y-100561204D01*
X124652999Y-100560000D01*
X125303001Y-100560000D01*
X125327505Y-100561204D01*
X125327505Y-100561204D01*
G37*
D11*
X124978000Y-101260000D03*
D10*
G36*
X127377505Y-100561204D02*
X127401773Y-100564804D01*
X127425572Y-100570765D01*
X127448671Y-100579030D01*
X127470850Y-100589520D01*
X127491893Y-100602132D01*
X127511599Y-100616747D01*
X127529777Y-100633223D01*
X127546253Y-100651401D01*
X127560868Y-100671107D01*
X127573480Y-100692150D01*
X127583970Y-100714329D01*
X127592235Y-100737428D01*
X127598196Y-100761227D01*
X127601796Y-100785495D01*
X127603000Y-100809999D01*
X127603000Y-101710001D01*
X127601796Y-101734505D01*
X127598196Y-101758773D01*
X127592235Y-101782572D01*
X127583970Y-101805671D01*
X127573480Y-101827850D01*
X127560868Y-101848893D01*
X127546253Y-101868599D01*
X127529777Y-101886777D01*
X127511599Y-101903253D01*
X127491893Y-101917868D01*
X127470850Y-101930480D01*
X127448671Y-101940970D01*
X127425572Y-101949235D01*
X127401773Y-101955196D01*
X127377505Y-101958796D01*
X127353001Y-101960000D01*
X126702999Y-101960000D01*
X126678495Y-101958796D01*
X126654227Y-101955196D01*
X126630428Y-101949235D01*
X126607329Y-101940970D01*
X126585150Y-101930480D01*
X126564107Y-101917868D01*
X126544401Y-101903253D01*
X126526223Y-101886777D01*
X126509747Y-101868599D01*
X126495132Y-101848893D01*
X126482520Y-101827850D01*
X126472030Y-101805671D01*
X126463765Y-101782572D01*
X126457804Y-101758773D01*
X126454204Y-101734505D01*
X126453000Y-101710001D01*
X126453000Y-100809999D01*
X126454204Y-100785495D01*
X126457804Y-100761227D01*
X126463765Y-100737428D01*
X126472030Y-100714329D01*
X126482520Y-100692150D01*
X126495132Y-100671107D01*
X126509747Y-100651401D01*
X126526223Y-100633223D01*
X126544401Y-100616747D01*
X126564107Y-100602132D01*
X126585150Y-100589520D01*
X126607329Y-100579030D01*
X126630428Y-100570765D01*
X126654227Y-100564804D01*
X126678495Y-100561204D01*
X126702999Y-100560000D01*
X127353001Y-100560000D01*
X127377505Y-100561204D01*
X127377505Y-100561204D01*
G37*
D11*
X127028000Y-101260000D03*
G04 #@! TD*
D10*
G04 #@! TO.C,C5*
G36*
X125327505Y-119357204D02*
X125351773Y-119360804D01*
X125375572Y-119366765D01*
X125398671Y-119375030D01*
X125420850Y-119385520D01*
X125441893Y-119398132D01*
X125461599Y-119412747D01*
X125479777Y-119429223D01*
X125496253Y-119447401D01*
X125510868Y-119467107D01*
X125523480Y-119488150D01*
X125533970Y-119510329D01*
X125542235Y-119533428D01*
X125548196Y-119557227D01*
X125551796Y-119581495D01*
X125553000Y-119605999D01*
X125553000Y-120506001D01*
X125551796Y-120530505D01*
X125548196Y-120554773D01*
X125542235Y-120578572D01*
X125533970Y-120601671D01*
X125523480Y-120623850D01*
X125510868Y-120644893D01*
X125496253Y-120664599D01*
X125479777Y-120682777D01*
X125461599Y-120699253D01*
X125441893Y-120713868D01*
X125420850Y-120726480D01*
X125398671Y-120736970D01*
X125375572Y-120745235D01*
X125351773Y-120751196D01*
X125327505Y-120754796D01*
X125303001Y-120756000D01*
X124652999Y-120756000D01*
X124628495Y-120754796D01*
X124604227Y-120751196D01*
X124580428Y-120745235D01*
X124557329Y-120736970D01*
X124535150Y-120726480D01*
X124514107Y-120713868D01*
X124494401Y-120699253D01*
X124476223Y-120682777D01*
X124459747Y-120664599D01*
X124445132Y-120644893D01*
X124432520Y-120623850D01*
X124422030Y-120601671D01*
X124413765Y-120578572D01*
X124407804Y-120554773D01*
X124404204Y-120530505D01*
X124403000Y-120506001D01*
X124403000Y-119605999D01*
X124404204Y-119581495D01*
X124407804Y-119557227D01*
X124413765Y-119533428D01*
X124422030Y-119510329D01*
X124432520Y-119488150D01*
X124445132Y-119467107D01*
X124459747Y-119447401D01*
X124476223Y-119429223D01*
X124494401Y-119412747D01*
X124514107Y-119398132D01*
X124535150Y-119385520D01*
X124557329Y-119375030D01*
X124580428Y-119366765D01*
X124604227Y-119360804D01*
X124628495Y-119357204D01*
X124652999Y-119356000D01*
X125303001Y-119356000D01*
X125327505Y-119357204D01*
X125327505Y-119357204D01*
G37*
D11*
X124978000Y-120056000D03*
D10*
G36*
X127377505Y-119357204D02*
X127401773Y-119360804D01*
X127425572Y-119366765D01*
X127448671Y-119375030D01*
X127470850Y-119385520D01*
X127491893Y-119398132D01*
X127511599Y-119412747D01*
X127529777Y-119429223D01*
X127546253Y-119447401D01*
X127560868Y-119467107D01*
X127573480Y-119488150D01*
X127583970Y-119510329D01*
X127592235Y-119533428D01*
X127598196Y-119557227D01*
X127601796Y-119581495D01*
X127603000Y-119605999D01*
X127603000Y-120506001D01*
X127601796Y-120530505D01*
X127598196Y-120554773D01*
X127592235Y-120578572D01*
X127583970Y-120601671D01*
X127573480Y-120623850D01*
X127560868Y-120644893D01*
X127546253Y-120664599D01*
X127529777Y-120682777D01*
X127511599Y-120699253D01*
X127491893Y-120713868D01*
X127470850Y-120726480D01*
X127448671Y-120736970D01*
X127425572Y-120745235D01*
X127401773Y-120751196D01*
X127377505Y-120754796D01*
X127353001Y-120756000D01*
X126702999Y-120756000D01*
X126678495Y-120754796D01*
X126654227Y-120751196D01*
X126630428Y-120745235D01*
X126607329Y-120736970D01*
X126585150Y-120726480D01*
X126564107Y-120713868D01*
X126544401Y-120699253D01*
X126526223Y-120682777D01*
X126509747Y-120664599D01*
X126495132Y-120644893D01*
X126482520Y-120623850D01*
X126472030Y-120601671D01*
X126463765Y-120578572D01*
X126457804Y-120554773D01*
X126454204Y-120530505D01*
X126453000Y-120506001D01*
X126453000Y-119605999D01*
X126454204Y-119581495D01*
X126457804Y-119557227D01*
X126463765Y-119533428D01*
X126472030Y-119510329D01*
X126482520Y-119488150D01*
X126495132Y-119467107D01*
X126509747Y-119447401D01*
X126526223Y-119429223D01*
X126544401Y-119412747D01*
X126564107Y-119398132D01*
X126585150Y-119385520D01*
X126607329Y-119375030D01*
X126630428Y-119366765D01*
X126654227Y-119360804D01*
X126678495Y-119357204D01*
X126702999Y-119356000D01*
X127353001Y-119356000D01*
X127377505Y-119357204D01*
X127377505Y-119357204D01*
G37*
D11*
X127028000Y-120056000D03*
G04 #@! TD*
D10*
G04 #@! TO.C,C6*
G36*
X125327505Y-138407204D02*
X125351773Y-138410804D01*
X125375572Y-138416765D01*
X125398671Y-138425030D01*
X125420850Y-138435520D01*
X125441893Y-138448132D01*
X125461599Y-138462747D01*
X125479777Y-138479223D01*
X125496253Y-138497401D01*
X125510868Y-138517107D01*
X125523480Y-138538150D01*
X125533970Y-138560329D01*
X125542235Y-138583428D01*
X125548196Y-138607227D01*
X125551796Y-138631495D01*
X125553000Y-138655999D01*
X125553000Y-139556001D01*
X125551796Y-139580505D01*
X125548196Y-139604773D01*
X125542235Y-139628572D01*
X125533970Y-139651671D01*
X125523480Y-139673850D01*
X125510868Y-139694893D01*
X125496253Y-139714599D01*
X125479777Y-139732777D01*
X125461599Y-139749253D01*
X125441893Y-139763868D01*
X125420850Y-139776480D01*
X125398671Y-139786970D01*
X125375572Y-139795235D01*
X125351773Y-139801196D01*
X125327505Y-139804796D01*
X125303001Y-139806000D01*
X124652999Y-139806000D01*
X124628495Y-139804796D01*
X124604227Y-139801196D01*
X124580428Y-139795235D01*
X124557329Y-139786970D01*
X124535150Y-139776480D01*
X124514107Y-139763868D01*
X124494401Y-139749253D01*
X124476223Y-139732777D01*
X124459747Y-139714599D01*
X124445132Y-139694893D01*
X124432520Y-139673850D01*
X124422030Y-139651671D01*
X124413765Y-139628572D01*
X124407804Y-139604773D01*
X124404204Y-139580505D01*
X124403000Y-139556001D01*
X124403000Y-138655999D01*
X124404204Y-138631495D01*
X124407804Y-138607227D01*
X124413765Y-138583428D01*
X124422030Y-138560329D01*
X124432520Y-138538150D01*
X124445132Y-138517107D01*
X124459747Y-138497401D01*
X124476223Y-138479223D01*
X124494401Y-138462747D01*
X124514107Y-138448132D01*
X124535150Y-138435520D01*
X124557329Y-138425030D01*
X124580428Y-138416765D01*
X124604227Y-138410804D01*
X124628495Y-138407204D01*
X124652999Y-138406000D01*
X125303001Y-138406000D01*
X125327505Y-138407204D01*
X125327505Y-138407204D01*
G37*
D11*
X124978000Y-139106000D03*
D10*
G36*
X127377505Y-138407204D02*
X127401773Y-138410804D01*
X127425572Y-138416765D01*
X127448671Y-138425030D01*
X127470850Y-138435520D01*
X127491893Y-138448132D01*
X127511599Y-138462747D01*
X127529777Y-138479223D01*
X127546253Y-138497401D01*
X127560868Y-138517107D01*
X127573480Y-138538150D01*
X127583970Y-138560329D01*
X127592235Y-138583428D01*
X127598196Y-138607227D01*
X127601796Y-138631495D01*
X127603000Y-138655999D01*
X127603000Y-139556001D01*
X127601796Y-139580505D01*
X127598196Y-139604773D01*
X127592235Y-139628572D01*
X127583970Y-139651671D01*
X127573480Y-139673850D01*
X127560868Y-139694893D01*
X127546253Y-139714599D01*
X127529777Y-139732777D01*
X127511599Y-139749253D01*
X127491893Y-139763868D01*
X127470850Y-139776480D01*
X127448671Y-139786970D01*
X127425572Y-139795235D01*
X127401773Y-139801196D01*
X127377505Y-139804796D01*
X127353001Y-139806000D01*
X126702999Y-139806000D01*
X126678495Y-139804796D01*
X126654227Y-139801196D01*
X126630428Y-139795235D01*
X126607329Y-139786970D01*
X126585150Y-139776480D01*
X126564107Y-139763868D01*
X126544401Y-139749253D01*
X126526223Y-139732777D01*
X126509747Y-139714599D01*
X126495132Y-139694893D01*
X126482520Y-139673850D01*
X126472030Y-139651671D01*
X126463765Y-139628572D01*
X126457804Y-139604773D01*
X126454204Y-139580505D01*
X126453000Y-139556001D01*
X126453000Y-138655999D01*
X126454204Y-138631495D01*
X126457804Y-138607227D01*
X126463765Y-138583428D01*
X126472030Y-138560329D01*
X126482520Y-138538150D01*
X126495132Y-138517107D01*
X126509747Y-138497401D01*
X126526223Y-138479223D01*
X126544401Y-138462747D01*
X126564107Y-138448132D01*
X126585150Y-138435520D01*
X126607329Y-138425030D01*
X126630428Y-138416765D01*
X126654227Y-138410804D01*
X126678495Y-138407204D01*
X126702999Y-138406000D01*
X127353001Y-138406000D01*
X127377505Y-138407204D01*
X127377505Y-138407204D01*
G37*
D11*
X127028000Y-139106000D03*
G04 #@! TD*
D10*
G04 #@! TO.C,C7*
G36*
X125349505Y-157457204D02*
X125373773Y-157460804D01*
X125397572Y-157466765D01*
X125420671Y-157475030D01*
X125442850Y-157485520D01*
X125463893Y-157498132D01*
X125483599Y-157512747D01*
X125501777Y-157529223D01*
X125518253Y-157547401D01*
X125532868Y-157567107D01*
X125545480Y-157588150D01*
X125555970Y-157610329D01*
X125564235Y-157633428D01*
X125570196Y-157657227D01*
X125573796Y-157681495D01*
X125575000Y-157705999D01*
X125575000Y-158606001D01*
X125573796Y-158630505D01*
X125570196Y-158654773D01*
X125564235Y-158678572D01*
X125555970Y-158701671D01*
X125545480Y-158723850D01*
X125532868Y-158744893D01*
X125518253Y-158764599D01*
X125501777Y-158782777D01*
X125483599Y-158799253D01*
X125463893Y-158813868D01*
X125442850Y-158826480D01*
X125420671Y-158836970D01*
X125397572Y-158845235D01*
X125373773Y-158851196D01*
X125349505Y-158854796D01*
X125325001Y-158856000D01*
X124674999Y-158856000D01*
X124650495Y-158854796D01*
X124626227Y-158851196D01*
X124602428Y-158845235D01*
X124579329Y-158836970D01*
X124557150Y-158826480D01*
X124536107Y-158813868D01*
X124516401Y-158799253D01*
X124498223Y-158782777D01*
X124481747Y-158764599D01*
X124467132Y-158744893D01*
X124454520Y-158723850D01*
X124444030Y-158701671D01*
X124435765Y-158678572D01*
X124429804Y-158654773D01*
X124426204Y-158630505D01*
X124425000Y-158606001D01*
X124425000Y-157705999D01*
X124426204Y-157681495D01*
X124429804Y-157657227D01*
X124435765Y-157633428D01*
X124444030Y-157610329D01*
X124454520Y-157588150D01*
X124467132Y-157567107D01*
X124481747Y-157547401D01*
X124498223Y-157529223D01*
X124516401Y-157512747D01*
X124536107Y-157498132D01*
X124557150Y-157485520D01*
X124579329Y-157475030D01*
X124602428Y-157466765D01*
X124626227Y-157460804D01*
X124650495Y-157457204D01*
X124674999Y-157456000D01*
X125325001Y-157456000D01*
X125349505Y-157457204D01*
X125349505Y-157457204D01*
G37*
D11*
X125000000Y-158156000D03*
D10*
G36*
X127399505Y-157457204D02*
X127423773Y-157460804D01*
X127447572Y-157466765D01*
X127470671Y-157475030D01*
X127492850Y-157485520D01*
X127513893Y-157498132D01*
X127533599Y-157512747D01*
X127551777Y-157529223D01*
X127568253Y-157547401D01*
X127582868Y-157567107D01*
X127595480Y-157588150D01*
X127605970Y-157610329D01*
X127614235Y-157633428D01*
X127620196Y-157657227D01*
X127623796Y-157681495D01*
X127625000Y-157705999D01*
X127625000Y-158606001D01*
X127623796Y-158630505D01*
X127620196Y-158654773D01*
X127614235Y-158678572D01*
X127605970Y-158701671D01*
X127595480Y-158723850D01*
X127582868Y-158744893D01*
X127568253Y-158764599D01*
X127551777Y-158782777D01*
X127533599Y-158799253D01*
X127513893Y-158813868D01*
X127492850Y-158826480D01*
X127470671Y-158836970D01*
X127447572Y-158845235D01*
X127423773Y-158851196D01*
X127399505Y-158854796D01*
X127375001Y-158856000D01*
X126724999Y-158856000D01*
X126700495Y-158854796D01*
X126676227Y-158851196D01*
X126652428Y-158845235D01*
X126629329Y-158836970D01*
X126607150Y-158826480D01*
X126586107Y-158813868D01*
X126566401Y-158799253D01*
X126548223Y-158782777D01*
X126531747Y-158764599D01*
X126517132Y-158744893D01*
X126504520Y-158723850D01*
X126494030Y-158701671D01*
X126485765Y-158678572D01*
X126479804Y-158654773D01*
X126476204Y-158630505D01*
X126475000Y-158606001D01*
X126475000Y-157705999D01*
X126476204Y-157681495D01*
X126479804Y-157657227D01*
X126485765Y-157633428D01*
X126494030Y-157610329D01*
X126504520Y-157588150D01*
X126517132Y-157567107D01*
X126531747Y-157547401D01*
X126548223Y-157529223D01*
X126566401Y-157512747D01*
X126586107Y-157498132D01*
X126607150Y-157485520D01*
X126629329Y-157475030D01*
X126652428Y-157466765D01*
X126676227Y-157460804D01*
X126700495Y-157457204D01*
X126724999Y-157456000D01*
X127375001Y-157456000D01*
X127399505Y-157457204D01*
X127399505Y-157457204D01*
G37*
D11*
X127050000Y-158156000D03*
G04 #@! TD*
D10*
G04 #@! TO.C,C12*
G36*
X72149504Y-58788704D02*
X72173773Y-58792304D01*
X72197571Y-58798265D01*
X72220671Y-58806530D01*
X72242849Y-58817020D01*
X72263893Y-58829633D01*
X72283598Y-58844247D01*
X72301777Y-58860723D01*
X72318253Y-58878902D01*
X72332867Y-58898607D01*
X72345480Y-58919651D01*
X72355970Y-58941829D01*
X72364235Y-58964929D01*
X72370196Y-58988727D01*
X72373796Y-59012996D01*
X72375000Y-59037500D01*
X72375000Y-59962500D01*
X72373796Y-59987004D01*
X72370196Y-60011273D01*
X72364235Y-60035071D01*
X72355970Y-60058171D01*
X72345480Y-60080349D01*
X72332867Y-60101393D01*
X72318253Y-60121098D01*
X72301777Y-60139277D01*
X72283598Y-60155753D01*
X72263893Y-60170367D01*
X72242849Y-60182980D01*
X72220671Y-60193470D01*
X72197571Y-60201735D01*
X72173773Y-60207696D01*
X72149504Y-60211296D01*
X72125000Y-60212500D01*
X70875000Y-60212500D01*
X70850496Y-60211296D01*
X70826227Y-60207696D01*
X70802429Y-60201735D01*
X70779329Y-60193470D01*
X70757151Y-60182980D01*
X70736107Y-60170367D01*
X70716402Y-60155753D01*
X70698223Y-60139277D01*
X70681747Y-60121098D01*
X70667133Y-60101393D01*
X70654520Y-60080349D01*
X70644030Y-60058171D01*
X70635765Y-60035071D01*
X70629804Y-60011273D01*
X70626204Y-59987004D01*
X70625000Y-59962500D01*
X70625000Y-59037500D01*
X70626204Y-59012996D01*
X70629804Y-58988727D01*
X70635765Y-58964929D01*
X70644030Y-58941829D01*
X70654520Y-58919651D01*
X70667133Y-58898607D01*
X70681747Y-58878902D01*
X70698223Y-58860723D01*
X70716402Y-58844247D01*
X70736107Y-58829633D01*
X70757151Y-58817020D01*
X70779329Y-58806530D01*
X70802429Y-58798265D01*
X70826227Y-58792304D01*
X70850496Y-58788704D01*
X70875000Y-58787500D01*
X72125000Y-58787500D01*
X72149504Y-58788704D01*
X72149504Y-58788704D01*
G37*
D12*
X71500000Y-59500000D03*
D10*
G36*
X72149504Y-61763704D02*
X72173773Y-61767304D01*
X72197571Y-61773265D01*
X72220671Y-61781530D01*
X72242849Y-61792020D01*
X72263893Y-61804633D01*
X72283598Y-61819247D01*
X72301777Y-61835723D01*
X72318253Y-61853902D01*
X72332867Y-61873607D01*
X72345480Y-61894651D01*
X72355970Y-61916829D01*
X72364235Y-61939929D01*
X72370196Y-61963727D01*
X72373796Y-61987996D01*
X72375000Y-62012500D01*
X72375000Y-62937500D01*
X72373796Y-62962004D01*
X72370196Y-62986273D01*
X72364235Y-63010071D01*
X72355970Y-63033171D01*
X72345480Y-63055349D01*
X72332867Y-63076393D01*
X72318253Y-63096098D01*
X72301777Y-63114277D01*
X72283598Y-63130753D01*
X72263893Y-63145367D01*
X72242849Y-63157980D01*
X72220671Y-63168470D01*
X72197571Y-63176735D01*
X72173773Y-63182696D01*
X72149504Y-63186296D01*
X72125000Y-63187500D01*
X70875000Y-63187500D01*
X70850496Y-63186296D01*
X70826227Y-63182696D01*
X70802429Y-63176735D01*
X70779329Y-63168470D01*
X70757151Y-63157980D01*
X70736107Y-63145367D01*
X70716402Y-63130753D01*
X70698223Y-63114277D01*
X70681747Y-63096098D01*
X70667133Y-63076393D01*
X70654520Y-63055349D01*
X70644030Y-63033171D01*
X70635765Y-63010071D01*
X70629804Y-62986273D01*
X70626204Y-62962004D01*
X70625000Y-62937500D01*
X70625000Y-62012500D01*
X70626204Y-61987996D01*
X70629804Y-61963727D01*
X70635765Y-61939929D01*
X70644030Y-61916829D01*
X70654520Y-61894651D01*
X70667133Y-61873607D01*
X70681747Y-61853902D01*
X70698223Y-61835723D01*
X70716402Y-61819247D01*
X70736107Y-61804633D01*
X70757151Y-61792020D01*
X70779329Y-61781530D01*
X70802429Y-61773265D01*
X70826227Y-61767304D01*
X70850496Y-61763704D01*
X70875000Y-61762500D01*
X72125000Y-61762500D01*
X72149504Y-61763704D01*
X72149504Y-61763704D01*
G37*
D12*
X71500000Y-62475000D03*
G04 #@! TD*
D10*
G04 #@! TO.C,C13*
G36*
X35299505Y-89801204D02*
X35323773Y-89804804D01*
X35347572Y-89810765D01*
X35370671Y-89819030D01*
X35392850Y-89829520D01*
X35413893Y-89842132D01*
X35433599Y-89856747D01*
X35451777Y-89873223D01*
X35468253Y-89891401D01*
X35482868Y-89911107D01*
X35495480Y-89932150D01*
X35505970Y-89954329D01*
X35514235Y-89977428D01*
X35520196Y-90001227D01*
X35523796Y-90025495D01*
X35525000Y-90049999D01*
X35525000Y-90950001D01*
X35523796Y-90974505D01*
X35520196Y-90998773D01*
X35514235Y-91022572D01*
X35505970Y-91045671D01*
X35495480Y-91067850D01*
X35482868Y-91088893D01*
X35468253Y-91108599D01*
X35451777Y-91126777D01*
X35433599Y-91143253D01*
X35413893Y-91157868D01*
X35392850Y-91170480D01*
X35370671Y-91180970D01*
X35347572Y-91189235D01*
X35323773Y-91195196D01*
X35299505Y-91198796D01*
X35275001Y-91200000D01*
X34624999Y-91200000D01*
X34600495Y-91198796D01*
X34576227Y-91195196D01*
X34552428Y-91189235D01*
X34529329Y-91180970D01*
X34507150Y-91170480D01*
X34486107Y-91157868D01*
X34466401Y-91143253D01*
X34448223Y-91126777D01*
X34431747Y-91108599D01*
X34417132Y-91088893D01*
X34404520Y-91067850D01*
X34394030Y-91045671D01*
X34385765Y-91022572D01*
X34379804Y-90998773D01*
X34376204Y-90974505D01*
X34375000Y-90950001D01*
X34375000Y-90049999D01*
X34376204Y-90025495D01*
X34379804Y-90001227D01*
X34385765Y-89977428D01*
X34394030Y-89954329D01*
X34404520Y-89932150D01*
X34417132Y-89911107D01*
X34431747Y-89891401D01*
X34448223Y-89873223D01*
X34466401Y-89856747D01*
X34486107Y-89842132D01*
X34507150Y-89829520D01*
X34529329Y-89819030D01*
X34552428Y-89810765D01*
X34576227Y-89804804D01*
X34600495Y-89801204D01*
X34624999Y-89800000D01*
X35275001Y-89800000D01*
X35299505Y-89801204D01*
X35299505Y-89801204D01*
G37*
D11*
X34950000Y-90500000D03*
D10*
G36*
X37349505Y-89801204D02*
X37373773Y-89804804D01*
X37397572Y-89810765D01*
X37420671Y-89819030D01*
X37442850Y-89829520D01*
X37463893Y-89842132D01*
X37483599Y-89856747D01*
X37501777Y-89873223D01*
X37518253Y-89891401D01*
X37532868Y-89911107D01*
X37545480Y-89932150D01*
X37555970Y-89954329D01*
X37564235Y-89977428D01*
X37570196Y-90001227D01*
X37573796Y-90025495D01*
X37575000Y-90049999D01*
X37575000Y-90950001D01*
X37573796Y-90974505D01*
X37570196Y-90998773D01*
X37564235Y-91022572D01*
X37555970Y-91045671D01*
X37545480Y-91067850D01*
X37532868Y-91088893D01*
X37518253Y-91108599D01*
X37501777Y-91126777D01*
X37483599Y-91143253D01*
X37463893Y-91157868D01*
X37442850Y-91170480D01*
X37420671Y-91180970D01*
X37397572Y-91189235D01*
X37373773Y-91195196D01*
X37349505Y-91198796D01*
X37325001Y-91200000D01*
X36674999Y-91200000D01*
X36650495Y-91198796D01*
X36626227Y-91195196D01*
X36602428Y-91189235D01*
X36579329Y-91180970D01*
X36557150Y-91170480D01*
X36536107Y-91157868D01*
X36516401Y-91143253D01*
X36498223Y-91126777D01*
X36481747Y-91108599D01*
X36467132Y-91088893D01*
X36454520Y-91067850D01*
X36444030Y-91045671D01*
X36435765Y-91022572D01*
X36429804Y-90998773D01*
X36426204Y-90974505D01*
X36425000Y-90950001D01*
X36425000Y-90049999D01*
X36426204Y-90025495D01*
X36429804Y-90001227D01*
X36435765Y-89977428D01*
X36444030Y-89954329D01*
X36454520Y-89932150D01*
X36467132Y-89911107D01*
X36481747Y-89891401D01*
X36498223Y-89873223D01*
X36516401Y-89856747D01*
X36536107Y-89842132D01*
X36557150Y-89829520D01*
X36579329Y-89819030D01*
X36602428Y-89810765D01*
X36626227Y-89804804D01*
X36650495Y-89801204D01*
X36674999Y-89800000D01*
X37325001Y-89800000D01*
X37349505Y-89801204D01*
X37349505Y-89801204D01*
G37*
D11*
X37000000Y-90500000D03*
G04 #@! TD*
D10*
G04 #@! TO.C,C15*
G36*
X32974505Y-85426204D02*
X32998773Y-85429804D01*
X33022572Y-85435765D01*
X33045671Y-85444030D01*
X33067850Y-85454520D01*
X33088893Y-85467132D01*
X33108599Y-85481747D01*
X33126777Y-85498223D01*
X33143253Y-85516401D01*
X33157868Y-85536107D01*
X33170480Y-85557150D01*
X33180970Y-85579329D01*
X33189235Y-85602428D01*
X33195196Y-85626227D01*
X33198796Y-85650495D01*
X33200000Y-85674999D01*
X33200000Y-86325001D01*
X33198796Y-86349505D01*
X33195196Y-86373773D01*
X33189235Y-86397572D01*
X33180970Y-86420671D01*
X33170480Y-86442850D01*
X33157868Y-86463893D01*
X33143253Y-86483599D01*
X33126777Y-86501777D01*
X33108599Y-86518253D01*
X33088893Y-86532868D01*
X33067850Y-86545480D01*
X33045671Y-86555970D01*
X33022572Y-86564235D01*
X32998773Y-86570196D01*
X32974505Y-86573796D01*
X32950001Y-86575000D01*
X32049999Y-86575000D01*
X32025495Y-86573796D01*
X32001227Y-86570196D01*
X31977428Y-86564235D01*
X31954329Y-86555970D01*
X31932150Y-86545480D01*
X31911107Y-86532868D01*
X31891401Y-86518253D01*
X31873223Y-86501777D01*
X31856747Y-86483599D01*
X31842132Y-86463893D01*
X31829520Y-86442850D01*
X31819030Y-86420671D01*
X31810765Y-86397572D01*
X31804804Y-86373773D01*
X31801204Y-86349505D01*
X31800000Y-86325001D01*
X31800000Y-85674999D01*
X31801204Y-85650495D01*
X31804804Y-85626227D01*
X31810765Y-85602428D01*
X31819030Y-85579329D01*
X31829520Y-85557150D01*
X31842132Y-85536107D01*
X31856747Y-85516401D01*
X31873223Y-85498223D01*
X31891401Y-85481747D01*
X31911107Y-85467132D01*
X31932150Y-85454520D01*
X31954329Y-85444030D01*
X31977428Y-85435765D01*
X32001227Y-85429804D01*
X32025495Y-85426204D01*
X32049999Y-85425000D01*
X32950001Y-85425000D01*
X32974505Y-85426204D01*
X32974505Y-85426204D01*
G37*
D11*
X32500000Y-86000000D03*
D10*
G36*
X32974505Y-83376204D02*
X32998773Y-83379804D01*
X33022572Y-83385765D01*
X33045671Y-83394030D01*
X33067850Y-83404520D01*
X33088893Y-83417132D01*
X33108599Y-83431747D01*
X33126777Y-83448223D01*
X33143253Y-83466401D01*
X33157868Y-83486107D01*
X33170480Y-83507150D01*
X33180970Y-83529329D01*
X33189235Y-83552428D01*
X33195196Y-83576227D01*
X33198796Y-83600495D01*
X33200000Y-83624999D01*
X33200000Y-84275001D01*
X33198796Y-84299505D01*
X33195196Y-84323773D01*
X33189235Y-84347572D01*
X33180970Y-84370671D01*
X33170480Y-84392850D01*
X33157868Y-84413893D01*
X33143253Y-84433599D01*
X33126777Y-84451777D01*
X33108599Y-84468253D01*
X33088893Y-84482868D01*
X33067850Y-84495480D01*
X33045671Y-84505970D01*
X33022572Y-84514235D01*
X32998773Y-84520196D01*
X32974505Y-84523796D01*
X32950001Y-84525000D01*
X32049999Y-84525000D01*
X32025495Y-84523796D01*
X32001227Y-84520196D01*
X31977428Y-84514235D01*
X31954329Y-84505970D01*
X31932150Y-84495480D01*
X31911107Y-84482868D01*
X31891401Y-84468253D01*
X31873223Y-84451777D01*
X31856747Y-84433599D01*
X31842132Y-84413893D01*
X31829520Y-84392850D01*
X31819030Y-84370671D01*
X31810765Y-84347572D01*
X31804804Y-84323773D01*
X31801204Y-84299505D01*
X31800000Y-84275001D01*
X31800000Y-83624999D01*
X31801204Y-83600495D01*
X31804804Y-83576227D01*
X31810765Y-83552428D01*
X31819030Y-83529329D01*
X31829520Y-83507150D01*
X31842132Y-83486107D01*
X31856747Y-83466401D01*
X31873223Y-83448223D01*
X31891401Y-83431747D01*
X31911107Y-83417132D01*
X31932150Y-83404520D01*
X31954329Y-83394030D01*
X31977428Y-83385765D01*
X32001227Y-83379804D01*
X32025495Y-83376204D01*
X32049999Y-83375000D01*
X32950001Y-83375000D01*
X32974505Y-83376204D01*
X32974505Y-83376204D01*
G37*
D11*
X32500000Y-83950000D03*
G04 #@! TD*
D10*
G04 #@! TO.C,C16*
G36*
X34233779Y-66750144D02*
X34256834Y-66753563D01*
X34279443Y-66759227D01*
X34301387Y-66767079D01*
X34322457Y-66777044D01*
X34342448Y-66789026D01*
X34361168Y-66802910D01*
X34378438Y-66818562D01*
X34394090Y-66835832D01*
X34407974Y-66854552D01*
X34419956Y-66874543D01*
X34429921Y-66895613D01*
X34437773Y-66917557D01*
X34443437Y-66940166D01*
X34446856Y-66963221D01*
X34448000Y-66986500D01*
X34448000Y-67461500D01*
X34446856Y-67484779D01*
X34443437Y-67507834D01*
X34437773Y-67530443D01*
X34429921Y-67552387D01*
X34419956Y-67573457D01*
X34407974Y-67593448D01*
X34394090Y-67612168D01*
X34378438Y-67629438D01*
X34361168Y-67645090D01*
X34342448Y-67658974D01*
X34322457Y-67670956D01*
X34301387Y-67680921D01*
X34279443Y-67688773D01*
X34256834Y-67694437D01*
X34233779Y-67697856D01*
X34210500Y-67699000D01*
X33635500Y-67699000D01*
X33612221Y-67697856D01*
X33589166Y-67694437D01*
X33566557Y-67688773D01*
X33544613Y-67680921D01*
X33523543Y-67670956D01*
X33503552Y-67658974D01*
X33484832Y-67645090D01*
X33467562Y-67629438D01*
X33451910Y-67612168D01*
X33438026Y-67593448D01*
X33426044Y-67573457D01*
X33416079Y-67552387D01*
X33408227Y-67530443D01*
X33402563Y-67507834D01*
X33399144Y-67484779D01*
X33398000Y-67461500D01*
X33398000Y-66986500D01*
X33399144Y-66963221D01*
X33402563Y-66940166D01*
X33408227Y-66917557D01*
X33416079Y-66895613D01*
X33426044Y-66874543D01*
X33438026Y-66854552D01*
X33451910Y-66835832D01*
X33467562Y-66818562D01*
X33484832Y-66802910D01*
X33503552Y-66789026D01*
X33523543Y-66777044D01*
X33544613Y-66767079D01*
X33566557Y-66759227D01*
X33589166Y-66753563D01*
X33612221Y-66750144D01*
X33635500Y-66749000D01*
X34210500Y-66749000D01*
X34233779Y-66750144D01*
X34233779Y-66750144D01*
G37*
D13*
X33923000Y-67224000D03*
D10*
G36*
X32483779Y-66750144D02*
X32506834Y-66753563D01*
X32529443Y-66759227D01*
X32551387Y-66767079D01*
X32572457Y-66777044D01*
X32592448Y-66789026D01*
X32611168Y-66802910D01*
X32628438Y-66818562D01*
X32644090Y-66835832D01*
X32657974Y-66854552D01*
X32669956Y-66874543D01*
X32679921Y-66895613D01*
X32687773Y-66917557D01*
X32693437Y-66940166D01*
X32696856Y-66963221D01*
X32698000Y-66986500D01*
X32698000Y-67461500D01*
X32696856Y-67484779D01*
X32693437Y-67507834D01*
X32687773Y-67530443D01*
X32679921Y-67552387D01*
X32669956Y-67573457D01*
X32657974Y-67593448D01*
X32644090Y-67612168D01*
X32628438Y-67629438D01*
X32611168Y-67645090D01*
X32592448Y-67658974D01*
X32572457Y-67670956D01*
X32551387Y-67680921D01*
X32529443Y-67688773D01*
X32506834Y-67694437D01*
X32483779Y-67697856D01*
X32460500Y-67699000D01*
X31885500Y-67699000D01*
X31862221Y-67697856D01*
X31839166Y-67694437D01*
X31816557Y-67688773D01*
X31794613Y-67680921D01*
X31773543Y-67670956D01*
X31753552Y-67658974D01*
X31734832Y-67645090D01*
X31717562Y-67629438D01*
X31701910Y-67612168D01*
X31688026Y-67593448D01*
X31676044Y-67573457D01*
X31666079Y-67552387D01*
X31658227Y-67530443D01*
X31652563Y-67507834D01*
X31649144Y-67484779D01*
X31648000Y-67461500D01*
X31648000Y-66986500D01*
X31649144Y-66963221D01*
X31652563Y-66940166D01*
X31658227Y-66917557D01*
X31666079Y-66895613D01*
X31676044Y-66874543D01*
X31688026Y-66854552D01*
X31701910Y-66835832D01*
X31717562Y-66818562D01*
X31734832Y-66802910D01*
X31753552Y-66789026D01*
X31773543Y-66777044D01*
X31794613Y-66767079D01*
X31816557Y-66759227D01*
X31839166Y-66753563D01*
X31862221Y-66750144D01*
X31885500Y-66749000D01*
X32460500Y-66749000D01*
X32483779Y-66750144D01*
X32483779Y-66750144D01*
G37*
D13*
X32173000Y-67224000D03*
G04 #@! TD*
D10*
G04 #@! TO.C,C17*
G36*
X46260779Y-63976144D02*
X46283834Y-63979563D01*
X46306443Y-63985227D01*
X46328387Y-63993079D01*
X46349457Y-64003044D01*
X46369448Y-64015026D01*
X46388168Y-64028910D01*
X46405438Y-64044562D01*
X46421090Y-64061832D01*
X46434974Y-64080552D01*
X46446956Y-64100543D01*
X46456921Y-64121613D01*
X46464773Y-64143557D01*
X46470437Y-64166166D01*
X46473856Y-64189221D01*
X46475000Y-64212500D01*
X46475000Y-64787500D01*
X46473856Y-64810779D01*
X46470437Y-64833834D01*
X46464773Y-64856443D01*
X46456921Y-64878387D01*
X46446956Y-64899457D01*
X46434974Y-64919448D01*
X46421090Y-64938168D01*
X46405438Y-64955438D01*
X46388168Y-64971090D01*
X46369448Y-64984974D01*
X46349457Y-64996956D01*
X46328387Y-65006921D01*
X46306443Y-65014773D01*
X46283834Y-65020437D01*
X46260779Y-65023856D01*
X46237500Y-65025000D01*
X45762500Y-65025000D01*
X45739221Y-65023856D01*
X45716166Y-65020437D01*
X45693557Y-65014773D01*
X45671613Y-65006921D01*
X45650543Y-64996956D01*
X45630552Y-64984974D01*
X45611832Y-64971090D01*
X45594562Y-64955438D01*
X45578910Y-64938168D01*
X45565026Y-64919448D01*
X45553044Y-64899457D01*
X45543079Y-64878387D01*
X45535227Y-64856443D01*
X45529563Y-64833834D01*
X45526144Y-64810779D01*
X45525000Y-64787500D01*
X45525000Y-64212500D01*
X45526144Y-64189221D01*
X45529563Y-64166166D01*
X45535227Y-64143557D01*
X45543079Y-64121613D01*
X45553044Y-64100543D01*
X45565026Y-64080552D01*
X45578910Y-64061832D01*
X45594562Y-64044562D01*
X45611832Y-64028910D01*
X45630552Y-64015026D01*
X45650543Y-64003044D01*
X45671613Y-63993079D01*
X45693557Y-63985227D01*
X45716166Y-63979563D01*
X45739221Y-63976144D01*
X45762500Y-63975000D01*
X46237500Y-63975000D01*
X46260779Y-63976144D01*
X46260779Y-63976144D01*
G37*
D13*
X46000000Y-64500000D03*
D10*
G36*
X46260779Y-62226144D02*
X46283834Y-62229563D01*
X46306443Y-62235227D01*
X46328387Y-62243079D01*
X46349457Y-62253044D01*
X46369448Y-62265026D01*
X46388168Y-62278910D01*
X46405438Y-62294562D01*
X46421090Y-62311832D01*
X46434974Y-62330552D01*
X46446956Y-62350543D01*
X46456921Y-62371613D01*
X46464773Y-62393557D01*
X46470437Y-62416166D01*
X46473856Y-62439221D01*
X46475000Y-62462500D01*
X46475000Y-63037500D01*
X46473856Y-63060779D01*
X46470437Y-63083834D01*
X46464773Y-63106443D01*
X46456921Y-63128387D01*
X46446956Y-63149457D01*
X46434974Y-63169448D01*
X46421090Y-63188168D01*
X46405438Y-63205438D01*
X46388168Y-63221090D01*
X46369448Y-63234974D01*
X46349457Y-63246956D01*
X46328387Y-63256921D01*
X46306443Y-63264773D01*
X46283834Y-63270437D01*
X46260779Y-63273856D01*
X46237500Y-63275000D01*
X45762500Y-63275000D01*
X45739221Y-63273856D01*
X45716166Y-63270437D01*
X45693557Y-63264773D01*
X45671613Y-63256921D01*
X45650543Y-63246956D01*
X45630552Y-63234974D01*
X45611832Y-63221090D01*
X45594562Y-63205438D01*
X45578910Y-63188168D01*
X45565026Y-63169448D01*
X45553044Y-63149457D01*
X45543079Y-63128387D01*
X45535227Y-63106443D01*
X45529563Y-63083834D01*
X45526144Y-63060779D01*
X45525000Y-63037500D01*
X45525000Y-62462500D01*
X45526144Y-62439221D01*
X45529563Y-62416166D01*
X45535227Y-62393557D01*
X45543079Y-62371613D01*
X45553044Y-62350543D01*
X45565026Y-62330552D01*
X45578910Y-62311832D01*
X45594562Y-62294562D01*
X45611832Y-62278910D01*
X45630552Y-62265026D01*
X45650543Y-62253044D01*
X45671613Y-62243079D01*
X45693557Y-62235227D01*
X45716166Y-62229563D01*
X45739221Y-62226144D01*
X45762500Y-62225000D01*
X46237500Y-62225000D01*
X46260779Y-62226144D01*
X46260779Y-62226144D01*
G37*
D13*
X46000000Y-62750000D03*
G04 #@! TD*
D10*
G04 #@! TO.C,F1*
G36*
X74849505Y-61801204D02*
X74873773Y-61804804D01*
X74897572Y-61810765D01*
X74920671Y-61819030D01*
X74942850Y-61829520D01*
X74963893Y-61842132D01*
X74983599Y-61856747D01*
X75001777Y-61873223D01*
X75018253Y-61891401D01*
X75032868Y-61911107D01*
X75045480Y-61932150D01*
X75055970Y-61954329D01*
X75064235Y-61977428D01*
X75070196Y-62001227D01*
X75073796Y-62025495D01*
X75075000Y-62049999D01*
X75075000Y-62950001D01*
X75073796Y-62974505D01*
X75070196Y-62998773D01*
X75064235Y-63022572D01*
X75055970Y-63045671D01*
X75045480Y-63067850D01*
X75032868Y-63088893D01*
X75018253Y-63108599D01*
X75001777Y-63126777D01*
X74983599Y-63143253D01*
X74963893Y-63157868D01*
X74942850Y-63170480D01*
X74920671Y-63180970D01*
X74897572Y-63189235D01*
X74873773Y-63195196D01*
X74849505Y-63198796D01*
X74825001Y-63200000D01*
X74174999Y-63200000D01*
X74150495Y-63198796D01*
X74126227Y-63195196D01*
X74102428Y-63189235D01*
X74079329Y-63180970D01*
X74057150Y-63170480D01*
X74036107Y-63157868D01*
X74016401Y-63143253D01*
X73998223Y-63126777D01*
X73981747Y-63108599D01*
X73967132Y-63088893D01*
X73954520Y-63067850D01*
X73944030Y-63045671D01*
X73935765Y-63022572D01*
X73929804Y-62998773D01*
X73926204Y-62974505D01*
X73925000Y-62950001D01*
X73925000Y-62049999D01*
X73926204Y-62025495D01*
X73929804Y-62001227D01*
X73935765Y-61977428D01*
X73944030Y-61954329D01*
X73954520Y-61932150D01*
X73967132Y-61911107D01*
X73981747Y-61891401D01*
X73998223Y-61873223D01*
X74016401Y-61856747D01*
X74036107Y-61842132D01*
X74057150Y-61829520D01*
X74079329Y-61819030D01*
X74102428Y-61810765D01*
X74126227Y-61804804D01*
X74150495Y-61801204D01*
X74174999Y-61800000D01*
X74825001Y-61800000D01*
X74849505Y-61801204D01*
X74849505Y-61801204D01*
G37*
D11*
X74500000Y-62500000D03*
D10*
G36*
X76899505Y-61801204D02*
X76923773Y-61804804D01*
X76947572Y-61810765D01*
X76970671Y-61819030D01*
X76992850Y-61829520D01*
X77013893Y-61842132D01*
X77033599Y-61856747D01*
X77051777Y-61873223D01*
X77068253Y-61891401D01*
X77082868Y-61911107D01*
X77095480Y-61932150D01*
X77105970Y-61954329D01*
X77114235Y-61977428D01*
X77120196Y-62001227D01*
X77123796Y-62025495D01*
X77125000Y-62049999D01*
X77125000Y-62950001D01*
X77123796Y-62974505D01*
X77120196Y-62998773D01*
X77114235Y-63022572D01*
X77105970Y-63045671D01*
X77095480Y-63067850D01*
X77082868Y-63088893D01*
X77068253Y-63108599D01*
X77051777Y-63126777D01*
X77033599Y-63143253D01*
X77013893Y-63157868D01*
X76992850Y-63170480D01*
X76970671Y-63180970D01*
X76947572Y-63189235D01*
X76923773Y-63195196D01*
X76899505Y-63198796D01*
X76875001Y-63200000D01*
X76224999Y-63200000D01*
X76200495Y-63198796D01*
X76176227Y-63195196D01*
X76152428Y-63189235D01*
X76129329Y-63180970D01*
X76107150Y-63170480D01*
X76086107Y-63157868D01*
X76066401Y-63143253D01*
X76048223Y-63126777D01*
X76031747Y-63108599D01*
X76017132Y-63088893D01*
X76004520Y-63067850D01*
X75994030Y-63045671D01*
X75985765Y-63022572D01*
X75979804Y-62998773D01*
X75976204Y-62974505D01*
X75975000Y-62950001D01*
X75975000Y-62049999D01*
X75976204Y-62025495D01*
X75979804Y-62001227D01*
X75985765Y-61977428D01*
X75994030Y-61954329D01*
X76004520Y-61932150D01*
X76017132Y-61911107D01*
X76031747Y-61891401D01*
X76048223Y-61873223D01*
X76066401Y-61856747D01*
X76086107Y-61842132D01*
X76107150Y-61829520D01*
X76129329Y-61819030D01*
X76152428Y-61810765D01*
X76176227Y-61804804D01*
X76200495Y-61801204D01*
X76224999Y-61800000D01*
X76875001Y-61800000D01*
X76899505Y-61801204D01*
X76899505Y-61801204D01*
G37*
D11*
X76550000Y-62500000D03*
G04 #@! TD*
D10*
G04 #@! TO.C,R1*
G36*
X116620779Y-74687144D02*
X116643834Y-74690563D01*
X116666443Y-74696227D01*
X116688387Y-74704079D01*
X116709457Y-74714044D01*
X116729448Y-74726026D01*
X116748168Y-74739910D01*
X116765438Y-74755562D01*
X116781090Y-74772832D01*
X116794974Y-74791552D01*
X116806956Y-74811543D01*
X116816921Y-74832613D01*
X116824773Y-74854557D01*
X116830437Y-74877166D01*
X116833856Y-74900221D01*
X116835000Y-74923500D01*
X116835000Y-75498500D01*
X116833856Y-75521779D01*
X116830437Y-75544834D01*
X116824773Y-75567443D01*
X116816921Y-75589387D01*
X116806956Y-75610457D01*
X116794974Y-75630448D01*
X116781090Y-75649168D01*
X116765438Y-75666438D01*
X116748168Y-75682090D01*
X116729448Y-75695974D01*
X116709457Y-75707956D01*
X116688387Y-75717921D01*
X116666443Y-75725773D01*
X116643834Y-75731437D01*
X116620779Y-75734856D01*
X116597500Y-75736000D01*
X116122500Y-75736000D01*
X116099221Y-75734856D01*
X116076166Y-75731437D01*
X116053557Y-75725773D01*
X116031613Y-75717921D01*
X116010543Y-75707956D01*
X115990552Y-75695974D01*
X115971832Y-75682090D01*
X115954562Y-75666438D01*
X115938910Y-75649168D01*
X115925026Y-75630448D01*
X115913044Y-75610457D01*
X115903079Y-75589387D01*
X115895227Y-75567443D01*
X115889563Y-75544834D01*
X115886144Y-75521779D01*
X115885000Y-75498500D01*
X115885000Y-74923500D01*
X115886144Y-74900221D01*
X115889563Y-74877166D01*
X115895227Y-74854557D01*
X115903079Y-74832613D01*
X115913044Y-74811543D01*
X115925026Y-74791552D01*
X115938910Y-74772832D01*
X115954562Y-74755562D01*
X115971832Y-74739910D01*
X115990552Y-74726026D01*
X116010543Y-74714044D01*
X116031613Y-74704079D01*
X116053557Y-74696227D01*
X116076166Y-74690563D01*
X116099221Y-74687144D01*
X116122500Y-74686000D01*
X116597500Y-74686000D01*
X116620779Y-74687144D01*
X116620779Y-74687144D01*
G37*
D13*
X116360000Y-75211000D03*
D10*
G36*
X116620779Y-72937144D02*
X116643834Y-72940563D01*
X116666443Y-72946227D01*
X116688387Y-72954079D01*
X116709457Y-72964044D01*
X116729448Y-72976026D01*
X116748168Y-72989910D01*
X116765438Y-73005562D01*
X116781090Y-73022832D01*
X116794974Y-73041552D01*
X116806956Y-73061543D01*
X116816921Y-73082613D01*
X116824773Y-73104557D01*
X116830437Y-73127166D01*
X116833856Y-73150221D01*
X116835000Y-73173500D01*
X116835000Y-73748500D01*
X116833856Y-73771779D01*
X116830437Y-73794834D01*
X116824773Y-73817443D01*
X116816921Y-73839387D01*
X116806956Y-73860457D01*
X116794974Y-73880448D01*
X116781090Y-73899168D01*
X116765438Y-73916438D01*
X116748168Y-73932090D01*
X116729448Y-73945974D01*
X116709457Y-73957956D01*
X116688387Y-73967921D01*
X116666443Y-73975773D01*
X116643834Y-73981437D01*
X116620779Y-73984856D01*
X116597500Y-73986000D01*
X116122500Y-73986000D01*
X116099221Y-73984856D01*
X116076166Y-73981437D01*
X116053557Y-73975773D01*
X116031613Y-73967921D01*
X116010543Y-73957956D01*
X115990552Y-73945974D01*
X115971832Y-73932090D01*
X115954562Y-73916438D01*
X115938910Y-73899168D01*
X115925026Y-73880448D01*
X115913044Y-73860457D01*
X115903079Y-73839387D01*
X115895227Y-73817443D01*
X115889563Y-73794834D01*
X115886144Y-73771779D01*
X115885000Y-73748500D01*
X115885000Y-73173500D01*
X115886144Y-73150221D01*
X115889563Y-73127166D01*
X115895227Y-73104557D01*
X115903079Y-73082613D01*
X115913044Y-73061543D01*
X115925026Y-73041552D01*
X115938910Y-73022832D01*
X115954562Y-73005562D01*
X115971832Y-72989910D01*
X115990552Y-72976026D01*
X116010543Y-72964044D01*
X116031613Y-72954079D01*
X116053557Y-72946227D01*
X116076166Y-72940563D01*
X116099221Y-72937144D01*
X116122500Y-72936000D01*
X116597500Y-72936000D01*
X116620779Y-72937144D01*
X116620779Y-72937144D01*
G37*
D13*
X116360000Y-73461000D03*
G04 #@! TD*
D10*
G04 #@! TO.C,R2*
G36*
X119160779Y-74687144D02*
X119183834Y-74690563D01*
X119206443Y-74696227D01*
X119228387Y-74704079D01*
X119249457Y-74714044D01*
X119269448Y-74726026D01*
X119288168Y-74739910D01*
X119305438Y-74755562D01*
X119321090Y-74772832D01*
X119334974Y-74791552D01*
X119346956Y-74811543D01*
X119356921Y-74832613D01*
X119364773Y-74854557D01*
X119370437Y-74877166D01*
X119373856Y-74900221D01*
X119375000Y-74923500D01*
X119375000Y-75498500D01*
X119373856Y-75521779D01*
X119370437Y-75544834D01*
X119364773Y-75567443D01*
X119356921Y-75589387D01*
X119346956Y-75610457D01*
X119334974Y-75630448D01*
X119321090Y-75649168D01*
X119305438Y-75666438D01*
X119288168Y-75682090D01*
X119269448Y-75695974D01*
X119249457Y-75707956D01*
X119228387Y-75717921D01*
X119206443Y-75725773D01*
X119183834Y-75731437D01*
X119160779Y-75734856D01*
X119137500Y-75736000D01*
X118662500Y-75736000D01*
X118639221Y-75734856D01*
X118616166Y-75731437D01*
X118593557Y-75725773D01*
X118571613Y-75717921D01*
X118550543Y-75707956D01*
X118530552Y-75695974D01*
X118511832Y-75682090D01*
X118494562Y-75666438D01*
X118478910Y-75649168D01*
X118465026Y-75630448D01*
X118453044Y-75610457D01*
X118443079Y-75589387D01*
X118435227Y-75567443D01*
X118429563Y-75544834D01*
X118426144Y-75521779D01*
X118425000Y-75498500D01*
X118425000Y-74923500D01*
X118426144Y-74900221D01*
X118429563Y-74877166D01*
X118435227Y-74854557D01*
X118443079Y-74832613D01*
X118453044Y-74811543D01*
X118465026Y-74791552D01*
X118478910Y-74772832D01*
X118494562Y-74755562D01*
X118511832Y-74739910D01*
X118530552Y-74726026D01*
X118550543Y-74714044D01*
X118571613Y-74704079D01*
X118593557Y-74696227D01*
X118616166Y-74690563D01*
X118639221Y-74687144D01*
X118662500Y-74686000D01*
X119137500Y-74686000D01*
X119160779Y-74687144D01*
X119160779Y-74687144D01*
G37*
D13*
X118900000Y-75211000D03*
D10*
G36*
X119160779Y-72937144D02*
X119183834Y-72940563D01*
X119206443Y-72946227D01*
X119228387Y-72954079D01*
X119249457Y-72964044D01*
X119269448Y-72976026D01*
X119288168Y-72989910D01*
X119305438Y-73005562D01*
X119321090Y-73022832D01*
X119334974Y-73041552D01*
X119346956Y-73061543D01*
X119356921Y-73082613D01*
X119364773Y-73104557D01*
X119370437Y-73127166D01*
X119373856Y-73150221D01*
X119375000Y-73173500D01*
X119375000Y-73748500D01*
X119373856Y-73771779D01*
X119370437Y-73794834D01*
X119364773Y-73817443D01*
X119356921Y-73839387D01*
X119346956Y-73860457D01*
X119334974Y-73880448D01*
X119321090Y-73899168D01*
X119305438Y-73916438D01*
X119288168Y-73932090D01*
X119269448Y-73945974D01*
X119249457Y-73957956D01*
X119228387Y-73967921D01*
X119206443Y-73975773D01*
X119183834Y-73981437D01*
X119160779Y-73984856D01*
X119137500Y-73986000D01*
X118662500Y-73986000D01*
X118639221Y-73984856D01*
X118616166Y-73981437D01*
X118593557Y-73975773D01*
X118571613Y-73967921D01*
X118550543Y-73957956D01*
X118530552Y-73945974D01*
X118511832Y-73932090D01*
X118494562Y-73916438D01*
X118478910Y-73899168D01*
X118465026Y-73880448D01*
X118453044Y-73860457D01*
X118443079Y-73839387D01*
X118435227Y-73817443D01*
X118429563Y-73794834D01*
X118426144Y-73771779D01*
X118425000Y-73748500D01*
X118425000Y-73173500D01*
X118426144Y-73150221D01*
X118429563Y-73127166D01*
X118435227Y-73104557D01*
X118443079Y-73082613D01*
X118453044Y-73061543D01*
X118465026Y-73041552D01*
X118478910Y-73022832D01*
X118494562Y-73005562D01*
X118511832Y-72989910D01*
X118530552Y-72976026D01*
X118550543Y-72964044D01*
X118571613Y-72954079D01*
X118593557Y-72946227D01*
X118616166Y-72940563D01*
X118639221Y-72937144D01*
X118662500Y-72936000D01*
X119137500Y-72936000D01*
X119160779Y-72937144D01*
X119160779Y-72937144D01*
G37*
D13*
X118900000Y-73461000D03*
G04 #@! TD*
D10*
G04 #@! TO.C,R3*
G36*
X44310779Y-57526144D02*
X44333834Y-57529563D01*
X44356443Y-57535227D01*
X44378387Y-57543079D01*
X44399457Y-57553044D01*
X44419448Y-57565026D01*
X44438168Y-57578910D01*
X44455438Y-57594562D01*
X44471090Y-57611832D01*
X44484974Y-57630552D01*
X44496956Y-57650543D01*
X44506921Y-57671613D01*
X44514773Y-57693557D01*
X44520437Y-57716166D01*
X44523856Y-57739221D01*
X44525000Y-57762500D01*
X44525000Y-58237500D01*
X44523856Y-58260779D01*
X44520437Y-58283834D01*
X44514773Y-58306443D01*
X44506921Y-58328387D01*
X44496956Y-58349457D01*
X44484974Y-58369448D01*
X44471090Y-58388168D01*
X44455438Y-58405438D01*
X44438168Y-58421090D01*
X44419448Y-58434974D01*
X44399457Y-58446956D01*
X44378387Y-58456921D01*
X44356443Y-58464773D01*
X44333834Y-58470437D01*
X44310779Y-58473856D01*
X44287500Y-58475000D01*
X43712500Y-58475000D01*
X43689221Y-58473856D01*
X43666166Y-58470437D01*
X43643557Y-58464773D01*
X43621613Y-58456921D01*
X43600543Y-58446956D01*
X43580552Y-58434974D01*
X43561832Y-58421090D01*
X43544562Y-58405438D01*
X43528910Y-58388168D01*
X43515026Y-58369448D01*
X43503044Y-58349457D01*
X43493079Y-58328387D01*
X43485227Y-58306443D01*
X43479563Y-58283834D01*
X43476144Y-58260779D01*
X43475000Y-58237500D01*
X43475000Y-57762500D01*
X43476144Y-57739221D01*
X43479563Y-57716166D01*
X43485227Y-57693557D01*
X43493079Y-57671613D01*
X43503044Y-57650543D01*
X43515026Y-57630552D01*
X43528910Y-57611832D01*
X43544562Y-57594562D01*
X43561832Y-57578910D01*
X43580552Y-57565026D01*
X43600543Y-57553044D01*
X43621613Y-57543079D01*
X43643557Y-57535227D01*
X43666166Y-57529563D01*
X43689221Y-57526144D01*
X43712500Y-57525000D01*
X44287500Y-57525000D01*
X44310779Y-57526144D01*
X44310779Y-57526144D01*
G37*
D13*
X44000000Y-58000000D03*
D10*
G36*
X42560779Y-57526144D02*
X42583834Y-57529563D01*
X42606443Y-57535227D01*
X42628387Y-57543079D01*
X42649457Y-57553044D01*
X42669448Y-57565026D01*
X42688168Y-57578910D01*
X42705438Y-57594562D01*
X42721090Y-57611832D01*
X42734974Y-57630552D01*
X42746956Y-57650543D01*
X42756921Y-57671613D01*
X42764773Y-57693557D01*
X42770437Y-57716166D01*
X42773856Y-57739221D01*
X42775000Y-57762500D01*
X42775000Y-58237500D01*
X42773856Y-58260779D01*
X42770437Y-58283834D01*
X42764773Y-58306443D01*
X42756921Y-58328387D01*
X42746956Y-58349457D01*
X42734974Y-58369448D01*
X42721090Y-58388168D01*
X42705438Y-58405438D01*
X42688168Y-58421090D01*
X42669448Y-58434974D01*
X42649457Y-58446956D01*
X42628387Y-58456921D01*
X42606443Y-58464773D01*
X42583834Y-58470437D01*
X42560779Y-58473856D01*
X42537500Y-58475000D01*
X41962500Y-58475000D01*
X41939221Y-58473856D01*
X41916166Y-58470437D01*
X41893557Y-58464773D01*
X41871613Y-58456921D01*
X41850543Y-58446956D01*
X41830552Y-58434974D01*
X41811832Y-58421090D01*
X41794562Y-58405438D01*
X41778910Y-58388168D01*
X41765026Y-58369448D01*
X41753044Y-58349457D01*
X41743079Y-58328387D01*
X41735227Y-58306443D01*
X41729563Y-58283834D01*
X41726144Y-58260779D01*
X41725000Y-58237500D01*
X41725000Y-57762500D01*
X41726144Y-57739221D01*
X41729563Y-57716166D01*
X41735227Y-57693557D01*
X41743079Y-57671613D01*
X41753044Y-57650543D01*
X41765026Y-57630552D01*
X41778910Y-57611832D01*
X41794562Y-57594562D01*
X41811832Y-57578910D01*
X41830552Y-57565026D01*
X41850543Y-57553044D01*
X41871613Y-57543079D01*
X41893557Y-57535227D01*
X41916166Y-57529563D01*
X41939221Y-57526144D01*
X41962500Y-57525000D01*
X42537500Y-57525000D01*
X42560779Y-57526144D01*
X42560779Y-57526144D01*
G37*
D13*
X42250000Y-58000000D03*
G04 #@! TD*
D14*
G04 #@! TO.C,Y1*
X42500000Y-65000000D03*
X34000000Y-65000000D03*
G04 #@! TD*
M02*
